<svg id="Layer_1" data-name="Layer 1" xmlns="http://www.w3.org/2000/svg" viewBox="0 0 566.88 559.77"><defs><style>.cls-1{fill:#fff;}</style></defs><title>House_Favicon_Large</title><path class="cls-1" d="M197.5,1.05H764.38V560.82H197.5V1.05Zm224,218.1c-2.86-3.27-5.1-6.28-7.81-8.77-2.08-1.91-4.89-4.65-7.15-4.45-10.58,1-20.87,2.63-29.36,10.53-16.34,15.19-32.83,30.28-50.06,44.45Q282,298,235.75,333.8c-8.16,6.29-9.79,13-9.21,22.48,2.34,38.23,4.1,76.5,5.94,114.77,1.14,23.63,2.09,47.26,3,70.9,0.14,3.66,1.28,5.22,5.3,5.23,11.66,0,23.31.59,35,.82q118.17,2.37,236.34,4.78c5.1,0.11,9.71-.66,13.56-3.85q14.6-12.1,28.82-24.65c1.13-1,1.7-3.19,1.7-4.83q0.13-90.22,0-180.44c0-1.59-.14-3.57-1-4.7-13.18-16.51-26.35-33-39.91-49.25-3.14-3.75-5.68-7.31-5.81-12.24-0.3-11.65-.66-23.31-0.79-35-0.14-11.81,0-23.62,0-33.93-2.43-2.61-5.17-4.2-5.22-5.86-0.11-3.81,1-7.5,6-8.39,2.51-.45,4.91-2,7.16-3.39,11.56-7.07,17-18.45,20.74-30.72a36.16,36.16,0,0,0,1-14.28c-1.71-14.61-13.87-19.67-25.06-10.2-12.57,10.64-22,23.53-24.88,40.37a5,5,0,0,1-2.94,3.35c-7.72,2-13.43,7-19.49,11.73-6.23,4.87-13,9.11-19.64,13.39C437.94,205.33,427.75,208.31,421.53,219.15Zm257.75-94.56,0-.62c2.83,0,5.67.19,8.48,0,5.68-.46,9.43-3.71,11.09-9.24,1.6-5.36-.32-9.52-4.6-12.64a45,45,0,0,0-8.1-4.87,102.71,102.71,0,0,0-50.61-8.57c-6.42.51-12.58,1.7-17.58,6.1-4.15,3.65-7.4,7.76-5.73,13.86,1.74,6.35,5.91,9.87,12.42,10.53Q652,121.89,679.28,124.59ZM601.23,58.9c18.6,0.86,31.27-8.61,42.07-20.91,7.9-9,3.32-22.66-8.27-25.84a29.6,29.6,0,0,0-11.82-.55c-14.67,2.16-26,9.84-33.92,22.3-3,4.77-6.54,7-12.43,7.32-14.09.75-28.7,14.25-30.7,27.38C544.9,76.88,549.68,83,558,83.81c14.22,1.35,26.15-4.74,31.46-17.83C592.17,59.26,595.25,56.55,601.23,58.9ZM559.86,175.55l0.12-2.14c6.41-.45,12.82-0.81,19.21-1.37,12.94-1.13,24-6,30.94-17.45,5-8.23.55-16.17-9.08-16.33a165.42,165.42,0,0,0-22.9,1.19c-8.46,1-16.71,3.31-23.65,8.68s-7.65,11.26-2.72,18.22l3.8,5.36L554.23,173l-12.77-11.05c2.81,9,18.68,19.46,28.7,18.47,14.29-1.41,28.29-4.78,40.8-12.27,8.15-4.88,12.36-12.49,12.36-22.05,0-7.27-4.06-12.36-10.53-13.08-21.74-2.4-42.87,0-63,8.86a43.48,43.48,0,0,0-5.38,3.32,18,18,0,0,0,7.41-1.84c18.87-7.7,38.54-10,58.74-8.51,4,0.3,7.63,1.81,8.8,6.12a21.56,21.56,0,0,1-10.39,24.81,89.78,89.78,0,0,1-38,11.07C567.26,177.07,563.54,176,559.86,175.55ZM531.4,62.61l-1.24-.24a45.9,45.9,0,0,0,0-6c-0.91-6.85-5.25-11.87-11.29-13.09-6.49-1.31-11.25,1.63-14,7.09-3.05,6-6.54,12.27-7.53,18.78a85.39,85.39,0,0,0-.22,26.59c1.62,9.72,11.64,12.71,19.21,6.22A29.69,29.69,0,0,0,525,89.6C527.91,80.86,529.35,71.63,531.4,62.61Zm-78.93,66.78c-0.13,9.2,7.79,17.18,17.21,17.31,7.6,0.11,15.3-8.56,15.46-17.4s-8.62-18.18-17.19-18.4C460.35,110.71,452.61,119.95,452.47,129.38ZM715.74,69.27c8.42,0.05,16.86-1.56,22.23-10.14,4.33-6.9,3.42-13.9-2.47-18.74-9.68-8-26.75-9.65-37.72-3.76-7.45,4-10.11,12.33-5.69,19.53C697.25,64.59,704.46,70,715.74,69.27Z" transform="translate(-197.5 -1.05)"/><path d="M421.53,219.15c6.22-10.84,16.41-13.82,24.82-19.22,6.67-4.28,13.41-8.52,19.64-13.39,6.06-4.74,11.78-9.75,19.49-11.73a5,5,0,0,0,2.94-3.35c2.86-16.84,12.31-29.73,24.88-40.37,11.19-9.47,23.35-4.41,25.06,10.2a36.16,36.16,0,0,1-1,14.28c-3.71,12.27-9.19,23.65-20.74,30.72-2.25,1.38-4.65,2.94-7.16,3.39-5,.89-6.11,4.58-6,8.39,0,1.66,2.78,3.25,5.22,5.86,0,10.31-.11,22.12,0,33.93,0.13,11.66.49,23.31,0.79,35,0.13,4.93,2.66,8.49,5.81,12.24,13.56,16.2,26.73,32.73,39.91,49.25,0.9,1.13,1,3.11,1,4.7q0.07,90.22,0,180.44c0,1.64-.57,3.83-1.7,4.83q-14.23,12.53-28.82,24.65c-3.85,3.19-8.46,4-13.56,3.85Q394,550.24,275.78,548c-11.66-.23-23.31-0.79-35-0.82-4,0-5.16-1.56-5.3-5.23-0.93-23.64-1.88-47.27-3-70.9-1.85-38.26-3.6-76.53-5.94-114.77-0.58-9.46,1.05-16.19,9.21-22.48q46.29-35.69,91.4-72.9c17.22-14.17,33.71-29.26,50.06-44.45,8.5-7.9,18.78-9.57,29.36-10.53,2.25-.2,5.07,2.54,7.15,4.45C416.43,212.87,418.66,215.88,421.53,219.15Zm-36.4-1-8.54,7.38C362.11,238.09,348,251,333.1,263.1q-45.75,37.18-92.19,73.53c-6.1,4.8-7.92,10.13-7.4,17.64,1.67,24.26,2.87,48.55,4,72.84Q240.12,482,242.32,537c0.16,3.81,1.32,5.06,5.25,5.13Q378.5,544.43,509.42,547c1.61,0,3.22-.13,5.18-0.22,0-2.35,0-4.32,0-6.29,0.31-34.15.35-68.31,1-102.46,0.46-24,1.85-47.93,2.56-71.9a13.75,13.75,0,0,0-2.57-8.17c-9.74-12.67-19.62-25.24-29.87-37.49-5.28-6.31-8-12.86-7.86-21.29,0.53-24.65.38-49.31,0.65-74,0-3.68-.81-5.31-4.91-5.45-13.48-.45-27-1.2-40.41-2.08-4.16-.27-5.55,1.25-5.65,5.28-0.24,9.82-.76,19.64-1.27,29.46-0.19,3.5-.7,7-1.07,10.48l-1.32.38ZM550.67,343.72l-1.52-1.27c-8.24,6.35-16.6,12.56-24.62,19.18-1.6,1.32-2.62,4.17-2.72,6.37-0.45,10.65,0,21.35-.76,32-3.32,46.1-3.26,92.23-1.53,138.38a43.77,43.77,0,0,0,1,5.52,80,80,0,0,0,7-4.3c6.45-5,12.94-10,19.07-15.35a10,10,0,0,0,3.14-6.61q1-79.23,1.61-158.46C551.39,354,550.91,348.87,550.67,343.72Zm-29.49,12.81a10.5,10.5,0,0,0,1.88-.75c8-5.74,16-11.39,23.76-17.39,0.92-.71,1.08-3.76.36-5a99.9,99.9,0,0,0-8.62-12.84C530,309.9,521.39,299.3,512.4,289c-4.57-5.22-6.45-5-10.83.12-5.41,6.33-10.52,12.91-15.78,19.37-1.65,2-2.13,3.9-.22,6.2,10.86,13.07,21.6,26.23,32.45,39.31A18.15,18.15,0,0,0,521.19,356.54Zm-38.87-52.38a71,71,0,0,0,5.33-5.09c4.26-5.12,8.57-10.21,12.47-15.6a13.28,13.28,0,0,0,2.5-7.16c0.19-20.48.12-41,.09-61.44,0-1.37-.24-2.74-0.42-4.64-6,3.23-11.49,6-16.73,9.14a6,6,0,0,0-2.24,4.35c-0.66,24.63-1.17,49.27-1.66,73.9A62.56,62.56,0,0,0,482.31,304.16Zm-60.83-50.55a13.51,13.51,0,0,0,1-2.21c0.22-1.31.33-2.64,0.53-4,1.68-11.36-.16-21.16-9.17-29.72-8.16-7.75-7.49-8.45-18.43-4.89-5.78,1.88-6.51,3.28-2.76,7.94,8.13,10.11,16.62,19.94,25,29.83A26.92,26.92,0,0,0,421.48,253.61Zm87.89-78.76-2-1.46c2.07-3.3,4.35-6.49,6.13-9.94s4-6.83,2.13-11.08c-6.5,2.59-15.4,17.73-14.43,23.94,1.46,9.37,7.95,12.45,15.74,7.13,2.82-1.93,5.75-4.44,7.28-7.38A184.88,184.88,0,0,0,534,153.83c1.16-3.2.54-7,.73-10.59l-1.36-.25c-0.62,1.95-1.29,3.89-1.87,5.85a70.3,70.3,0,0,1-16.16,28.92c-1.71,1.82-4.23,2.88-6.38,4.29l-1.17-1.44a64,64,0,0,0,4.83-6c4.16-6.55,8.45-13.06,12-19.92,1.45-2.78,1.66-6.44,1.62-9.69,0-2.81-1.63-5.48-5.18-4.13-5.31,2-9.21,5.84-13.38,10.84,1.7-.12,2.18-0.11,2.65-0.19,3.11-.55,7.14-3.49,9,0.35,1.18,2.47-.67,6.42-1.27,9.68a6.34,6.34,0,0,1-1.14,2.21C514.44,167.48,511.9,171.16,509.38,174.84Zm-74.32,37.1,0.55,1.83a32.27,32.27,0,0,0,5.17,1.23c10.28,0.75,20.58,1.33,30.86,2.05,12.09,0.85,20.47-4.38,25.42-15.32,1.06-2.34,2-4.72,3-7.08l-1.18-.46c-2.79,3.88-5.4,7.9-8.41,11.6-3.32,4.08-7.77,4.86-13.17,3.6,2.14-2.61,4.18-4.63,5.61-7,0.92-1.53.94-3.61,1.36-5.44-1.86-.07-4.11-0.86-5.5-0.09a129.62,129.62,0,0,0-13.32,8.61c-2.62,1.9-11.16,3.56-14,2.13-0.72-.36-1.2-1.19-1.92-1.54s-2-1-2.58-.65C443,207.46,439,209.73,435.06,211.94Zm61.61-55.53c11-8.84,17.12-25.09,36.14-21.86-1.29-2.15-2.59-4.31-3.93-4.33-3.86-.06-8.37-0.38-11.47,1.41C507.63,137.24,501.83,146.63,496.67,156.41ZM489.28,201l1.66,0.64c1.27-3.55,3-7,3.56-10.7,0.19-1.28-2.31-4-4-4.33-5.86-1.31-19.82,5.68-23.5,11.5,3.46-1.22,6.53-2.39,9.65-3.39C484.67,192.19,487.13,193.45,489.28,201ZM501,188.1c0.43-5.63-1.89-8.54-7.25-9.85-8.34-2-21.93,3.94-26.22,11.6a2.76,2.76,0,0,0,.46,1.09c4.76-2.51,9.31-5.62,14.32-7.37C489,181.23,496.35,178.82,501,188.1Z" transform="translate(-197.5 -1.05)"/><path d="M679.28,124.59q-27.3-2.73-54.6-5.48c-6.51-.66-10.68-4.18-12.42-10.53-1.67-6.11,1.58-10.21,5.73-13.86,5-4.4,11.17-5.59,17.58-6.1a102.71,102.71,0,0,1,50.61,8.57,45,45,0,0,1,8.1,4.87c4.28,3.12,6.21,7.28,4.6,12.64-1.66,5.53-5.4,8.78-11.09,9.24-2.81.23-5.65,0-8.48,0Zm-33.46-7.95v2.16L687,121.19c3.9,0.23,6.13-1.86,7.64-5.22,3-6.63,1.3-10.71-6.11-15-19-11-39.64-11.65-60.57-8.6-3.86.56-7.66,3.78-10.77,6.57-3.36,3-3.84,7.27-1.63,11.46a12.66,12.66,0,0,0,12.62,6.7c-1.14-1.36-2-2.52-3-3.5-7.87-7.71-6.41-14,4.15-17.35a21.72,21.72,0,0,1,6.34-1.3c8.81,0,17.75-.73,26.38.58,6.85,1,13.53,4.2,19.83,7.32,1.91,0.95,3.35,5,3.19,7.48-0.23,3.61-3.6,4.72-7.1,4.82-8.16.22-16.31,0.52-24.46,0.86C651,116.11,648.4,116.43,645.82,116.65Zm14.55-4.77c5,2.28,10.39.45,15.61-.42,3.79-.63,4.75-3.25,2.11-6a20.32,20.32,0,0,0-7.8-5c-11.93-4.08-24.28-3.32-36.53-2-2.41.26-4.94,2.08-6.82,3.82-2.59,2.39-2.62,5.53.33,7.74a13.87,13.87,0,0,0,12.09,2.62c-1.36-3.27-3.24-6.14-3.4-9.1-0.05-1,4.37-2.19,6.74-3.29l0.46,1.05-5.73,3.14,0.27,1.63h20.72l-8.24-5.09,0.92-1.69c3.76,2,7.69,3.79,11.12,6.26C662.79,105.9,661.14,109.37,660.37,111.88Z" transform="translate(-197.5 -1.05)"/><path d="M601.23,58.9c-6-2.35-9.06.35-11.78,7.07-5.31,13.1-17.23,19.18-31.46,17.83-8.31-.79-13.09-6.93-11.83-15.2,2-13.13,16.61-26.63,30.7-27.38,5.9-.31,9.41-2.56,12.43-7.32,7.91-12.46,19.26-20.14,33.92-22.3a29.6,29.6,0,0,1,11.82.55C646.62,15.33,651.2,29,643.3,38,632.5,50.29,619.83,59.77,601.23,58.9Zm-49,2.72c-3.7,3.59-5.13,9.21-3.56,13.24,1.65,4.24,5.41,5.91,9.54,6.11,12.74,0.62,22-5.28,28.3-16.07,1.42-2.43,2-5.41,3.75-7.56a8,8,0,0,1,5.44-2.56c4.44-.14,9,1,13.35.58,14.14-1.46,23.74-10.49,32.37-20.68,6.61-7.8,3.24-17.75-6.9-19.67-4-.76-8.44.24-12.65,0.72-13.4,1.55-23.4,9.09-30.21,19.94-3.81,6.06-8,8.32-14.48,8a33.58,33.58,0,0,0-5,.22c-5.89.63-14.5,7.06-16.38,12.73,2.51-1.35,4.45-2.53,6.5-3.46,3.46-1.58,6.9-3.8,10.53-4.26a14.17,14.17,0,0,1,9.45,2.38c3.28,2.47,2.58,6.7.82,10.13-4.3,8.37-11.17,13.61-20.46,15.19-5.76,1-9.62-2.47-10.06-8.31C552.43,66.29,552.36,64.24,552.21,61.62Zm19.34-6.13c2.92,3.63,2.72,5.82.06,8.29-3.59,3.33-7,2.86-13.54-2.65l-1.37,9.41c2.49,0.24,5,.92,7.45.63,6.66-.81,11.08-5.11,14.28-10.61,0.85-1.47,1.22-4.31.37-5.42-1.09-1.42-3.91-2.75-5.49-2.31-3.8,1-7.31,3.14-10.94,4.81L562.94,59l5.9-1.17-5.38,6.53C569.86,64.14,571.13,60.63,571.56,55.49Z" transform="translate(-197.5 -1.05)"/><path d="M559.86,175.55c3.68,0.46,7.41,1.52,11,1.27a89.78,89.78,0,0,0,38-11.07,21.56,21.56,0,0,0,10.39-24.81c-1.17-4.31-4.75-5.82-8.8-6.12-20.2-1.5-39.86.81-58.74,8.51a18,18,0,0,1-7.41,1.84,43.48,43.48,0,0,1,5.38-3.32c20.18-8.82,41.3-11.26,63-8.86,6.47,0.71,10.52,5.8,10.53,13.08,0,9.57-4.21,17.17-12.36,22.05-12.51,7.49-26.51,10.86-40.8,12.27-10,1-25.89-9.42-28.7-18.47L554.23,173l1.35-1.27-3.8-5.36c-4.93-7-4.11-12.92,2.72-18.22s15.19-7.64,23.65-8.68a165.42,165.42,0,0,1,22.9-1.19c9.63,0.15,14.07,8.09,9.08,16.33-7,11.46-18,16.33-30.94,17.45-6.4.56-12.81,0.92-19.21,1.37Zm12.68-6.37c13.33-.56,24-5.88,32.34-15.87,3.46-4.13,2.48-8.16-2.47-10.35a17.3,17.3,0,0,0-6.23-1.57,67.15,67.15,0,0,0-38.78,10.43,10.26,10.26,0,0,0-1.87,1.64c-4.56,4.74-3.61,10.43,2.55,12.55C562.72,167.6,567.71,168.16,572.53,169.18Z" transform="translate(-197.5 -1.05)"/><path d="M531.4,62.61c-2.05,9-3.49,18.26-6.4,27A29.69,29.69,0,0,1,516.27,102c-7.57,6.48-17.59,3.5-19.21-6.22a85.39,85.39,0,0,1,.22-26.59c1-6.5,4.48-12.76,7.53-18.78,2.77-5.47,7.54-8.4,14-7.09,6,1.22,10.38,6.24,11.29,13.09a45.9,45.9,0,0,1,0,6ZM499.53,87.08c-0.25,8.2,2.6,13.1,7.12,14.12,5.06,1.14,9.89-2,13.1-9.3,5.13-11.68,8.18-23.9,6.91-36.78-0.56-5.69-4.79-9-10.66-9.13-5.11-.14-8.09,2.71-9.24,9,0.63-.54,1.13-0.93,1.59-1.36,6.56-6,12.47-4.34,14.57,4.39,3,12.65-.31,24.08-7.81,34.29-3.66,5-8.7,4.52-12.41-.53C501.58,90.31,500.59,88.67,499.53,87.08Zm18.32-13.67,1.56,0c-0.64-5-1.08-10-2.09-14.84-0.21-1-3.5-2.51-3.82-2.2a86.56,86.56,0,0,0-6.56,8C515.19,65.21,515.19,65.21,517.85,73.41Zm-13.91,4.4c-1,6.22.83,10.89,4.48,11.35,4.56,0.58,7.73-3.68,8.19-11C508.42,85,508.42,85,503.94,77.81Zm3.56,1.08,2,0.56c3-2.92,4.5-6.23,2.95-10.25l-2-.53Z" transform="translate(-197.5 -1.05)"/><path d="M452.47,129.38c0.14-9.43,7.87-18.67,15.47-18.48,8.57,0.22,17.34,9.6,17.19,18.4s-7.86,17.51-15.46,17.4C460.27,146.56,452.34,138.58,452.47,129.38Zm10.42,10.71c4.07,4.86,10.09,4.8,14,.77,4.15-4.3,5.86-13.85,3.45-19.23-2.19-4.9-7.89-8.14-12.86-6.85,7.14,3.72,10.17,9.36,8.62,17C474.74,138.37,469.66,140.09,462.89,140.09Zm3.2-19.32c1.65,4.56,2.33,8.17-3.22,9.09-0.46.08-1.19,2.37-.84,2.76,1,1.15,3.48,2.84,3.75,2.59,2.5-2.34,5.65-4.72,6.65-7.74C473.56,124,471.07,121.36,466.08,120.77Zm-7.19.91c-4.86,3.71-5.65,9.36-2,14.44Z" transform="translate(-197.5 -1.05)"/><path d="M715.74,69.27c-11.28.72-18.49-4.69-23.65-13.11-4.42-7.2-1.76-15.53,5.69-19.53,11-5.89,28-4.19,37.72,3.76,5.9,4.84,6.8,11.84,2.47,18.74C732.59,67.71,724.15,69.33,715.74,69.27Zm-1.32-3c2-.14,4-0.14,6-0.44,9.81-1.51,15.69-6.67,16.83-15.07,0.24-1.78-.11-4.22-1.2-5.5-7.79-9.13-27.16-12.13-37.52-6.07-5.58,3.26-7.82,10.9-4.12,16C699.23,61.91,705.42,66.78,714.42,66.31Z" transform="translate(-197.5 -1.05)"/><path class="cls-1" d="M385.13,218.16l38.77,45.13,1.32-.38c0.36-3.49.88-7,1.07-10.48,0.52-9.81,1-19.63,1.27-29.46,0.1-4,1.49-5.55,5.65-5.28,13.46,0.88,26.93,1.63,40.41,2.08,4.09,0.14,4.95,1.77,4.91,5.45-0.26,24.66-.12,49.32-0.65,74-0.18,8.42,2.58,15,7.86,21.29C496,332.73,505.87,345.3,515.61,358a13.75,13.75,0,0,1,2.57,8.17c-0.71,24-2.1,47.93-2.56,71.9-0.66,34.15-.71,68.3-1,102.46,0,2,0,3.94,0,6.29-2,.09-3.57.25-5.18,0.22q-130.92-2.49-261.85-4.94c-3.93-.07-5.09-1.32-5.25-5.13q-2.24-54.93-4.8-109.84c-1.15-24.29-2.35-48.58-4-72.84-0.52-7.51,1.3-12.85,7.4-17.64q46.35-36.43,92.19-73.53c14.86-12.07,29-25,43.48-37.57Zm7.32,22.74c-9,6.09-18,12.06-26.83,18.22q-59.47,41.37-118.93,82.76c-4.2,2.91-5.44,6.22-5.15,11.24,1.93,34.09,3.4,68.2,5.32,102.29,1.29,22.94,3,45.87,4.68,68.78,0.7,9.33,1.46,9.94,11,9.83,13.66-.16,27.31-0.84,41-0.85q97.21-.07,194.42.1c2.25,0,4.5-.2,7-0.32,0.13-2.5.28-4.48,0.34-6.45,1.69-51.45,3.18-102.9,5.25-154.33,0.31-7.76-1.83-13.08-7.23-18.4q-38.09-37.53-75.6-75.64C415.78,266.07,404.36,253.52,392.45,240.9ZM434,225.46c0,9.68.84,18.58-.2,27.25-1.56,13.11,2.06,23.16,13.1,30.76,4.2,2.89,7.52,7.05,11.25,10.63l7.05,6.76c1.76-23.14,3.46-45.37,5.15-67.6a2.79,2.79,0,0,0,0-1.47c-0.93-1.32-1.9-3.53-3-3.64C456.44,227.07,445.52,226.34,434,225.46Z" transform="translate(-197.5 -1.05)"/><path class="cls-1" d="M550.67,343.72c0.24,5.15.72,10.29,0.67,15.44q-0.67,79.23-1.61,158.46a10,10,0,0,1-3.14,6.61c-6.13,5.38-12.62,10.35-19.07,15.35a80,80,0,0,1-7,4.3,43.77,43.77,0,0,1-1-5.52c-1.72-46.15-1.78-92.28,1.53-138.38,0.76-10.62.31-21.32,0.76-32,0.09-2.2,1.11-5,2.72-6.37,8-6.62,16.38-12.83,24.62-19.18Z" transform="translate(-197.5 -1.05)"/><path class="cls-1" d="M521.19,356.54A18.15,18.15,0,0,1,518,354c-10.84-13.08-21.59-26.24-32.45-39.31-1.91-2.3-1.42-4.18.22-6.2,5.26-6.46,10.37-13,15.78-19.37,4.38-5.12,6.26-5.34,10.83-.12,9,10.27,17.61,20.87,26.17,31.51a99.9,99.9,0,0,1,8.62,12.84c0.72,1.26.56,4.31-.36,5-7.76,6-15.79,11.65-23.76,17.39A10.5,10.5,0,0,1,521.19,356.54Z" transform="translate(-197.5 -1.05)"/><path class="cls-1" d="M482.31,304.16a62.56,62.56,0,0,1-.66-6.53c0.49-24.63,1-49.27,1.66-73.9a6,6,0,0,1,2.24-4.35c5.24-3.16,10.73-5.91,16.73-9.14,0.18,1.9.42,3.27,0.42,4.64,0,20.48.1,41-.09,61.44a13.28,13.28,0,0,1-2.5,7.16c-3.9,5.39-8.21,10.48-12.47,15.6A71,71,0,0,1,482.31,304.16Z" transform="translate(-197.5 -1.05)"/><path class="cls-1" d="M421.48,253.61a26.92,26.92,0,0,1-3.78-3c-8.41-9.89-16.9-19.72-25-29.83-3.75-4.66-3-6.05,2.76-7.94,10.94-3.57,10.27-2.86,18.43,4.89,9,8.56,10.85,18.36,9.17,29.72-0.19,1.32-.3,2.65-0.53,4A13.51,13.51,0,0,1,421.48,253.61Z" transform="translate(-197.5 -1.05)"/><path class="cls-1" d="M509.38,174.84c2.52-3.68,5.06-7.36,7.56-11.06a6.34,6.34,0,0,0,1.14-2.21c0.6-3.26,2.45-7.2,1.27-9.68-1.82-3.84-5.86-.9-9-0.35-0.47.08-.95,0.07-2.65,0.19,4.17-5,8.07-8.84,13.38-10.84,3.55-1.34,5.15,1.33,5.18,4.13,0,3.25-.17,6.91-1.62,9.69-3.59,6.86-7.87,13.37-12,19.92a64,64,0,0,1-4.83,6L509,182c2.15-1.41,4.67-2.47,6.38-4.29a70.3,70.3,0,0,0,16.16-28.92c0.57-2,1.24-3.9,1.87-5.85l1.36,0.25c-0.19,3.55.43,7.39-.73,10.59A184.88,184.88,0,0,1,524.26,176c-1.53,2.94-4.46,5.45-7.28,7.38-7.79,5.32-14.28,2.24-15.74-7.13-1-6.21,7.93-21.36,14.43-23.94,1.89,4.25-.39,7.72-2.13,11.08s-4.07,6.64-6.13,9.94Z" transform="translate(-197.5 -1.05)"/><path class="cls-1" d="M435.06,211.94c4-2.21,7.9-4.48,11.95-6.54,0.6-.31,1.78.26,2.58,0.65s1.2,1.18,1.92,1.54c2.81,1.43,11.36-.24,14-2.13a129.62,129.62,0,0,1,13.32-8.61c1.39-.77,3.65,0,5.5.09-0.42,1.83-.44,3.9-1.36,5.44-1.43,2.38-3.47,4.4-5.61,7,5.41,1.26,9.85.48,13.17-3.6,3-3.7,5.62-7.72,8.41-11.6l1.18,0.46c-1,2.36-2,4.74-3,7.08-4.95,10.94-13.33,16.16-25.42,15.32-10.28-.72-20.58-1.3-30.86-2.05a32.27,32.27,0,0,1-5.17-1.23Z" transform="translate(-197.5 -1.05)"/><path class="cls-1" d="M496.67,156.41c5.16-9.78,11-19.17,20.73-24.79,3.1-1.78,7.61-1.47,11.47-1.41,1.34,0,2.65,2.18,3.93,4.33C513.79,131.32,507.67,147.57,496.67,156.41Z" transform="translate(-197.5 -1.05)"/><path class="cls-1" d="M489.28,201c-2.15-7.59-4.61-8.85-12.58-6.29-3.12,1-6.19,2.17-9.65,3.39,3.68-5.81,17.64-12.81,23.5-11.5,1.65,0.37,4.15,3.06,4,4.33-0.56,3.66-2.29,7.15-3.56,10.7Z" transform="translate(-197.5 -1.05)"/><path class="cls-1" d="M501,188.1c-4.67-9.28-12-6.87-18.69-4.53-5,1.75-9.56,4.86-14.32,7.37a2.76,2.76,0,0,1-.46-1.09c4.3-7.66,17.88-13.65,26.22-11.6C499.13,179.56,501.45,182.47,501,188.1Z" transform="translate(-197.5 -1.05)"/><path class="cls-1" d="M645.82,116.65c2.58-.22,5.16-0.53,7.74-0.64,8.15-.33,16.31-0.64,24.46-0.86,3.5-.09,6.87-1.21,7.1-4.82,0.16-2.5-1.28-6.53-3.19-7.48-6.3-3.12-13-6.28-19.83-7.32-8.63-1.3-17.57-.61-26.38-0.58a21.72,21.72,0,0,0-6.34,1.3c-10.56,3.37-12,9.64-4.15,17.35,1,1,1.82,2.14,3,3.5a12.66,12.66,0,0,1-12.62-6.7c-2.21-4.2-1.73-8.44,1.63-11.46,3.11-2.79,6.91-6,10.77-6.57,20.93-3.05,41.54-2.44,60.57,8.6,7.4,4.29,9.09,8.37,6.11,15-1.51,3.35-3.74,5.44-7.64,5.22l-41.22-2.38v-2.16Z" transform="translate(-197.5 -1.05)"/><path class="cls-1" d="M660.37,111.88c0.77-2.51,2.42-6,1.86-6.38-3.43-2.47-7.35-4.25-11.12-6.26l-0.92,1.69,8.24,5.09H637.71l-0.27-1.63,5.73-3.14-0.46-1.05c-2.37,1.1-6.79,2.31-6.74,3.29,0.16,3,2,5.83,3.4,9.1A13.87,13.87,0,0,1,627.29,110c-3-2.21-2.92-5.35-.33-7.74,1.88-1.74,4.41-3.56,6.82-3.82,12.25-1.32,24.6-2.08,36.53,2a20.32,20.32,0,0,1,7.8,5c2.64,2.76,1.68,5.38-2.11,6C670.76,112.33,665.41,114.16,660.37,111.88Z" transform="translate(-197.5 -1.05)"/><path class="cls-1" d="M552.21,61.62c0.14,2.62.22,4.67,0.37,6.71,0.44,5.84,4.3,9.29,10.06,8.31,9.29-1.58,16.16-6.82,20.46-15.19,1.76-3.43,2.46-7.66-.82-10.13A14.17,14.17,0,0,0,572.83,49c-3.63.45-7.07,2.67-10.53,4.26-2,.94-4,2.11-6.5,3.46,1.88-5.67,10.49-12.1,16.38-12.73a33.58,33.58,0,0,1,5-.22c6.5,0.27,10.67-2,14.48-8,6.81-10.85,16.81-18.39,30.21-19.94,4.2-.49,8.62-1.49,12.65-0.72,10.13,1.92,13.51,11.86,6.9,19.67C632.76,44.87,623.16,53.9,609,55.36c-4.38.45-8.9-.72-13.35-0.58a8,8,0,0,0-5.44,2.56c-1.71,2.15-2.33,5.13-3.75,7.56C580.17,75.69,570.93,81.6,558.19,81c-4.13-.2-7.88-1.87-9.54-6.11C547.08,70.83,548.51,65.21,552.21,61.62Zm54.45-12c7.32-2.84,14.1-5.38,20.81-8.11,5.79-2.36,9.09-7.06,11.3-12.68,1.82-4.6.66-8.39-3.85-10.32a15.52,15.52,0,0,0-8.2-1.32,43.32,43.32,0,0,0-27.66,16.43c-2.48,3.18-3.94,7.26-1.25,10.61C599.72,46.6,603.29,47.65,606.66,49.62Z" transform="translate(-197.5 -1.05)"/><path class="cls-1" d="M571.56,55.49c-0.42,5.14-1.69,8.65-8.09,8.84l5.38-6.53L562.94,59l-0.55-1.34c3.63-1.67,7.14-3.77,10.94-4.81,1.58-.43,4.4.89,5.49,2.31,0.85,1.11.49,3.95-.37,5.42-3.2,5.5-7.62,9.79-14.28,10.61-2.42.3-5-.39-7.45-0.63l1.37-9.41c6.5,5.52,9.94,6,13.54,2.65C574.28,61.31,574.48,59.13,571.56,55.49Z" transform="translate(-197.5 -1.05)"/><path class="cls-1" d="M572.53,169.18c-4.83-1-9.82-1.58-14.45-3.17-6.16-2.12-7.11-7.81-2.55-12.55a10.26,10.26,0,0,1,1.87-1.64,67.15,67.15,0,0,1,38.78-10.43A17.3,17.3,0,0,1,602.4,143c4.95,2.2,5.92,6.22,2.47,10.35C596.51,163.31,585.87,168.62,572.53,169.18Zm0.45-6.11c4.76-1.48,9.93-2.64,14.62-4.81,1.58-.73,2.91-4.2,2.63-6.17s-2.57-5.11-4.2-5.25c-8.3-.76-16.25.85-22.83,6.47-2.55,2.18-2.42,5.07.35,6.69C566.13,161.49,569.31,161.93,573,163.08Z" transform="translate(-197.5 -1.05)"/><path class="cls-1" d="M499.53,87.08c1.06,1.59,2.05,3.23,3.18,4.77,3.71,5.05,8.75,5.51,12.41.53,7.5-10.21,10.85-21.65,7.81-34.29-2.1-8.73-8-10.4-14.57-4.39-0.46.42-1,.82-1.59,1.36,1.15-6.34,4.13-9.18,9.24-9,5.87,0.16,10.1,3.44,10.66,9.13,1.27,12.88-1.78,25.09-6.91,36.78-3.21,7.32-8,10.43-13.1,9.3C502.13,100.19,499.28,95.29,499.53,87.08Z" transform="translate(-197.5 -1.05)"/><path class="cls-1" d="M517.85,73.41c-2.66-8.2-2.66-8.2-10.91-9.13a86.56,86.56,0,0,1,6.56-8c0.32-.31,3.6,1.18,3.82,2.2,1,4.88,1.45,9.88,2.09,14.84Z" transform="translate(-197.5 -1.05)"/><path class="cls-1" d="M503.94,77.81c4.48,7.16,4.48,7.16,12.67.36-0.46,7.31-3.63,11.57-8.19,11C504.76,88.69,502.92,84,503.94,77.81Z" transform="translate(-197.5 -1.05)"/><path class="cls-1" d="M507.5,78.88l2.94-10.22,2,0.53c1.55,4,.09,7.32-2.95,10.25Z" transform="translate(-197.5 -1.05)"/><path class="cls-1" d="M462.89,140.09c6.77,0,11.85-1.72,13.19-8.33,1.54-7.62-1.48-13.26-8.62-17,5-1.29,10.67,1.95,12.86,6.85,2.41,5.39.69,14.93-3.45,19.23C473,144.89,467,144.94,462.89,140.09Z" transform="translate(-197.5 -1.05)"/><path class="cls-1" d="M466.08,120.77c5,0.59,7.47,3.28,6.34,6.7-1,3-4.15,5.39-6.65,7.74-0.27.25-2.72-1.44-3.75-2.59-0.36-.4.38-2.69,0.84-2.76C468.41,128.94,467.73,125.32,466.08,120.77Z" transform="translate(-197.5 -1.05)"/><path class="cls-1" d="M458.89,121.68l-2,14.44C453.24,131,454,125.39,458.89,121.68Z" transform="translate(-197.5 -1.05)"/><path class="cls-1" d="M714.42,66.31c-9,.48-15.18-4.39-20.05-11.09-3.7-5.09-1.46-12.73,4.12-16,10.36-6.06,29.73-3.06,37.52,6.07,1.09,1.28,1.44,3.72,1.2,5.5-1.13,8.4-7,13.56-16.83,15.07C718.43,66.17,716.41,66.17,714.42,66.31Zm2.13-2.8c5.28-2,9.92-3.3,14-5.58,3.68-2.06,4.22-5.82,2.06-9.55-4.36-7.53-20.77-11.77-28.24-7.38-6.15,3.61-7.32,11-1.71,15.33C706.65,59.44,711.77,61.11,716.55,63.5Z" transform="translate(-197.5 -1.05)"/><path d="M392.45,240.9c11.91,12.62,23.34,25.17,35.25,37.24q37.55,38.07,75.6,75.64c5.39,5.32,7.54,10.64,7.23,18.4-2.07,51.43-3.56,102.88-5.25,154.33-0.06,2-.21,4-0.34,6.45-2.47.12-4.72,0.32-7,.32q-97.21-.05-194.42-0.1c-13.66,0-27.31.69-41,.85-9.57.11-10.34-.5-11-9.83-1.71-22.92-3.39-45.84-4.68-68.78-1.92-34.09-3.4-68.2-5.32-102.29-0.28-5,1-8.33,5.15-11.24q59.55-41.26,118.93-82.76C374.48,253,383.48,247,392.45,240.9ZM500.72,530.69a16.94,16.94,0,0,0,.64-2.21q2.63-81.92,5.12-163.85a8.49,8.49,0,0,0-2.33-5.56q-53.74-54-107.69-107.9c-1.85-1.84-3.86-3.52-5.82-5.29-2.22,1.38-4.1,2.44-5.88,3.66q-68.15,46.82-136.2,93.79a8.2,8.2,0,0,0-3,6c0.42,14.32,1.27,28.62,1.94,42.93,1.69,36.28,3.24,72.56,5.1,108.82,0.44,8.63,1.85,17.21,2.86,25.8,0.41,3.51,2.12,5.18,6,4.81,4.46-.42,9-0.3,13.48-0.32q95.22-.37,190.43-0.7C477.2,530.66,489,530.69,500.72,530.69Z" transform="translate(-197.5 -1.05)"/><path d="M434,225.46c11.54,0.88,22.46,1.6,33.36,2.69,1.13,0.11,2.1,2.32,3,3.64a2.79,2.79,0,0,1,0,1.47c-1.69,22.23-3.39,44.47-5.15,67.6l-7.05-6.76c-3.72-3.58-7-7.74-11.25-10.63-11-7.6-14.66-17.65-13.1-30.76C434.82,244,434,235.14,434,225.46Zm26.64,63.78a4,4,0,0,0,.88-1.1c1.37-17.76,2.79-35.51,3.92-53.28,0.08-1.24-1.82-3.6-3-3.75-7.81-1-15.68-1.53-23.73-2.23,0,13.37,0,25.51,0,37.66a6.41,6.41,0,0,0,1.1,3.77A86.56,86.56,0,0,0,460.62,289.24Z" transform="translate(-197.5 -1.05)"/><path d="M606.66,49.62c-3.37-2-6.94-3-8.85-5.39-2.69-3.35-1.24-7.43,1.25-10.61a43.32,43.32,0,0,1,27.66-16.43,15.52,15.52,0,0,1,8.2,1.32c4.51,1.93,5.67,5.72,3.85,10.32-2.21,5.61-5.51,10.32-11.3,12.68C620.76,44.24,614,46.78,606.66,49.62Zm1.84-5.35c10.16-.67,18.66-4.25,24.24-12.8a8.48,8.48,0,0,0,.51-7.23c-0.82-1.6-4.19-3-6.2-2.7-10.71,1.42-19.15,7-25.56,15.61-2.28,3.05-1.2,5.32,2.3,6.38A32.06,32.06,0,0,0,608.5,44.26Z" transform="translate(-197.5 -1.05)"/><path d="M573,163.08c-3.67-1.14-6.86-1.58-9.42-3.09-2.77-1.62-2.9-4.51-.35-6.69,6.58-5.62,14.53-7.23,22.83-6.47,1.63,0.15,3.92,3.27,4.2,5.25s-1,5.44-2.63,6.17C582.91,160.44,577.74,161.59,573,163.08Zm-0.93-2.91,0.36,0.87c4.39-1.67,8.9-3.09,13.1-5.15,1.16-.57,2.19-3.29,1.8-4.57s-2.87-2.64-4.17-2.41a121.43,121.43,0,0,0-15.62,3.84c-1.22.38-2.92,2.76-2.64,3.62,0.46,1.39,2.29,2.49,3.77,3.32C569.59,160.21,570.91,160,572.06,160.17Z" transform="translate(-197.5 -1.05)"/><path d="M716.55,63.5c-4.78-2.4-9.9-4.07-13.89-7.18C697,51.95,698.22,44.6,704.37,41c7.47-4.39,23.88-.15,28.24,7.38,2.16,3.73,1.62,7.5-2.06,9.55C726.47,60.2,721.83,61.46,716.55,63.5Zm4.19-20.71c-1.12,4.61,4.49,9.3-2,10.82-2.33.55-6.78-.17-7.44-1.61-2.59-5.68,4.41-5.53,6.32-9.14a37.84,37.84,0,0,0-11.29,2.59c-3.55,1.59-3.85,5.79-1.18,8.85,4.17,4.78,17,6,21.76,1.65,1.2-1.1,2.05-4.3,1.33-5.42C726.56,47.84,723.8,45.8,720.74,42.79Z" transform="translate(-197.5 -1.05)"/><path class="cls-1" d="M500.72,530.69c-11.73,0-23.52,0-35.31,0Q370.19,531,275,531.4c-4.5,0-9-.11-13.48.32-3.87.37-5.58-1.31-6-4.81-1-8.6-2.42-17.17-2.86-25.8-1.86-36.27-3.41-72.55-5.1-108.82-0.67-14.31-1.52-28.61-1.94-42.93a8.2,8.2,0,0,1,3-6q68-47.06,136.2-93.79c1.77-1.22,3.65-2.28,5.88-3.66,2,1.77,4,3.45,5.82,5.29q53.9,53.9,107.69,107.9a8.49,8.49,0,0,1,2.33,5.56q-2.41,81.93-5.12,163.85A16.94,16.94,0,0,1,500.72,530.69ZM367.28,519.19c42.37,0,75.69.1,109-.06,10.19,0,10.2-.38,11.63-10.6a54.81,54.81,0,0,0,.57-6q2-69.95,4.06-139.9c0.1-3.38-1.19-5.49-3.51-7.67-23.49-22-46.8-44.13-70.39-66-8.78-8.14-18.15-15.66-27.29-23.42-3.52-3-7-2.88-10.85-.21q-57.93,39.69-116,79.14c-3.15,2.14-4.22,4.56-4,8.27,1.18,25,2.19,49.94,3.25,74.91,1.14,26.64,2.15,53.28,3.47,79.91,0.48,9.72.81,9.87,10.68,10.06C310.67,518.29,343.5,518.79,367.28,519.19Z" transform="translate(-197.5 -1.05)"/><path class="cls-1" d="M460.62,289.24a86.56,86.56,0,0,1-20.79-18.94,6.41,6.41,0,0,1-1.1-3.77c-0.08-12.14,0-24.29,0-37.66,8,0.7,15.91,1.23,23.73,2.23,1.2,0.15,3.1,2.52,3,3.75-1.13,17.77-2.55,35.53-3.92,53.28A4,4,0,0,1,460.62,289.24Zm-5.18-11.63,1.52-.68c1.09-5.17,2.93-10.33,3.06-15.53,0.14-5.47-1.48-11-2.07-16.47-0.54-5.08-3.67-6-8-5.89s-7.07,1.72-7.23,6.3c-0.2,5.8-.27,11.61-0.31,17.42a4.25,4.25,0,0,0,.75,2.77C447.16,269.63,451.32,273.6,455.43,277.61Z" transform="translate(-197.5 -1.05)"/><path class="cls-1" d="M608.5,44.26a32.06,32.06,0,0,1-4.71-.74c-3.49-1.06-4.57-3.33-2.3-6.38,6.41-8.61,14.85-14.19,25.56-15.61,2-.27,5.37,1.1,6.2,2.7a8.48,8.48,0,0,1-.51,7.23C627.16,40,618.66,43.59,608.5,44.26Zm3.44-10.12,9.27-6.61-1-1.26c-3,2.17-6.05,4.21-8.82,6.61a4.14,4.14,0,0,0-1.06,3.73,4.44,4.44,0,0,0,3.47,2.06,16.49,16.49,0,0,0,13.28-6.75c2.29-3.13,1.28-4.87-1.95-5.55-1.08,2.53-1.47,5.42-3.13,6.9C619.52,35.5,616.17,37.16,611.94,34.14Z" transform="translate(-197.5 -1.05)"/><path class="cls-1" d="M572.06,160.17c-1.14-.13-2.47,0-3.39-0.48-1.47-.83-3.3-1.93-3.77-3.32-0.29-.87,1.41-3.24,2.64-3.62a121.43,121.43,0,0,1,15.62-3.84c1.29-.22,3.81,1.24,4.17,2.41s-0.64,4-1.8,4.57c-4.2,2.06-8.71,3.49-13.1,5.15Z" transform="translate(-197.5 -1.05)"/><path class="cls-1" d="M720.74,42.79c3.06,3,5.81,5.05,7.55,7.75,0.72,1.12-.14,4.32-1.33,5.42-4.72,4.33-17.59,3.13-21.76-1.65-2.67-3.06-2.37-7.26,1.18-8.85a37.84,37.84,0,0,1,11.29-2.59c-1.9,3.61-8.9,3.46-6.32,9.14,0.65,1.43,5.11,2.16,7.44,1.61C725.23,52.09,719.62,47.4,720.74,42.79Z" transform="translate(-197.5 -1.05)"/><path d="M367.28,519.19c-23.78-.4-56.61-0.89-89.43-1.52-9.87-.19-10.2-0.34-10.68-10.06-1.32-26.63-2.34-53.27-3.47-79.91-1.06-25-2.07-49.94-3.25-74.91-0.18-3.72.89-6.13,4-8.27q58.1-39.44,116-79.14c3.89-2.67,7.34-2.77,10.85.21,9.14,7.76,18.5,15.28,27.29,23.42,23.59,21.86,46.9,44,70.39,66,2.33,2.18,3.62,4.29,3.51,7.67q-2.14,69.95-4.06,139.9a54.81,54.81,0,0,1-.57,6c-1.43,10.22-1.44,10.55-11.63,10.6C443,519.29,409.65,519.19,367.28,519.19Zm115.67-3.35c0.26-1.52.56-2.64,0.63-3.77,1.17-19.12,2.74-38.22,3.34-57.35,0.87-27.81.94-55.64,1.55-83.46a23.54,23.54,0,0,0-7.95-18.93c-17.71-16.68-34.9-33.89-52.52-50.67-11.1-10.57-22.29-21.08-34-30.95-8.74-7.37-6.31-6.4-14.67-.85-35.26,23.39-70.21,47.24-105.66,70.33-7.17,4.67-9.79,9.42-9.37,17.92,1.93,39.44,3.17,78.91,4.68,118.37,0.43,11.15,1,22.3,1.32,33.45,0.1,3.73,1.21,5.27,5.22,5.19,7.16-.15,14.32.43,21.48,0.45q91.23,0.3,182.46.49C480.47,516.07,481.46,515.94,482.95,515.84Z" transform="translate(-197.5 -1.05)"/><path d="M455.43,277.61c-4.12-4-8.28-8-12.3-12.08a4.25,4.25,0,0,1-.75-2.77c0-5.81.11-11.62,0.31-17.42,0.16-4.58,2.89-6.2,7.23-6.3s7.48,0.81,8,5.89c0.59,5.51,2.22,11,2.07,16.47-0.14,5.2-2,10.35-3.06,15.53Zm-4-7.12,2.06-.75c0-8.37.14-16.74-.14-25.09,0-1.3-2-2.53-3.06-3.8-0.94,1.28-2.64,2.52-2.7,3.85a122.59,122.59,0,0,0,.1,17.87C447.94,265.3,450.1,267.85,451.41,270.49Z" transform="translate(-197.5 -1.05)"/><path d="M611.94,34.14c4.22,3,7.58,1.36,10.11-.88,1.66-1.47,2.05-4.37,3.13-6.9,3.22,0.68,4.23,2.42,1.95,5.55a16.49,16.49,0,0,1-13.28,6.75,4.44,4.44,0,0,1-3.47-2.06,4.14,4.14,0,0,1,1.06-3.73c2.76-2.4,5.85-4.43,8.82-6.61l1,1.26Z" transform="translate(-197.5 -1.05)"/><path class="cls-1" d="M482.95,515.84c-1.49.1-2.48,0.23-3.47,0.23q-91.23-.22-182.46-0.49c-7.16,0-14.33-.6-21.48-0.45-4,.08-5.13-1.46-5.22-5.19-0.29-11.15-.89-22.3-1.32-33.45-1.51-39.46-2.75-78.93-4.68-118.37-0.42-8.51,2.2-13.25,9.37-17.92,35.45-23.09,70.4-46.95,105.66-70.33,8.36-5.54,5.93-6.52,14.67.85,11.71,9.87,22.9,20.38,34,30.95,17.61,16.78,34.81,34,52.52,50.67a23.54,23.54,0,0,1,7.95,18.93c-0.61,27.82-.68,55.65-1.55,83.46-0.6,19.13-2.18,38.24-3.34,57.35C483.5,513.2,483.21,514.32,482.95,515.84Zm-10.22-7.3c0.32-4.16.75-7.41,0.78-10.67q0.49-67.73.75-135.46a10.43,10.43,0,0,0-3-6.65c-5.57-5.49-11.64-10.47-17.36-15.81-20.33-19-40.47-38.2-64.29-53-3.58-2.22-6.25-2.54-9.89-.25-28.17,17.73-56.8,34.76-84.56,53.1-18.68,12.34-16.69,7.33-16.42,31.31,0.38,34.14,1.95,68.28,3.16,102.41,0.36,10.1,1.21,20.19,1.87,30.86Z" transform="translate(-197.5 -1.05)"/><path class="cls-1" d="M451.41,270.49c-1.31-2.64-3.47-5.18-3.74-7.92a122.59,122.59,0,0,1-.1-17.87c0.06-1.32,1.76-2.57,2.7-3.85,1.07,1.26,3,2.5,3.06,3.8,0.28,8.36.14,16.73,0.14,25.09Z" transform="translate(-197.5 -1.05)"/><path d="M472.73,508.54l-189-4.15c-0.66-10.67-1.52-20.76-1.87-30.86-1.21-34.13-2.78-68.27-3.16-102.41-0.26-24-2.26-19,16.42-31.31,27.76-18.34,56.39-35.37,84.56-53.1,3.64-2.29,6.31-2,9.89.25,23.82,14.79,44,34,64.29,53,5.72,5.35,11.79,10.33,17.36,15.81a10.43,10.43,0,0,1,3,6.65q-0.16,67.73-.75,135.46C473.48,501.12,473,504.37,472.73,508.54Zm-3.95-28.42a14.45,14.45,0,0,0,.55-2.14q-1.06-58-2.25-115.9a7.92,7.92,0,0,0-2.4-5.11c-18.78-17-37.75-33.74-56.5-50.74-5-4.56-9.72-5.14-15.71-1.74-19.23,10.94-38.69,21.47-57.93,32.39a7.12,7.12,0,0,0-3,5.33q1.45,61.94,3.33,123.86c0.13,4.59.66,9.16,1,14H468.78ZM323.7,341.51c-14.25,3.29-27.53,7.31-40.09,13.44-1.09.53-1.73,3-1.73,4.57,0,7.33.26,14.66,0.52,22q2,55.18,4,110.36a78.26,78.26,0,0,0,1.23,8.26c13.88-5.23,27.1-10.15,40.22-15.32,1-.39,1.82-2.65,1.78-4q-2.12-62.17-4.51-124.34C325,351.69,324.24,346.95,323.7,341.51Zm-23,159c2.75,0.31,4.32.6,5.9,0.65,50.08,1.6,100.15,3.36,150.23,4.66,14,0.36,12.46,2.46,12.9-12.69,0.13-4.36-1-6.09-5.76-6.14-41.45-.52-82.89-1.28-124.33-1.94a11.84,11.84,0,0,0-4.42.45c-10.2,4-20.35,8.16-30.5,12.33A30.28,30.28,0,0,0,300.67,500.46Zm-8.32-154.89,0.74,1.15c37.12-10.27,68.7-31.35,101.6-51.56-2.29-1.8-3.54-2.63-4.61-3.64-3.79-3.55-7.21-3.48-11.76-.58-26.06,16.61-52.35,32.86-78.53,49.28C297.19,341.83,294.82,343.77,292.34,345.56Z" transform="translate(-197.5 -1.05)"/><path class="cls-1" d="M468.78,480.12H335.91c-0.37-4.88-.9-9.46-1-14q-1.79-61.93-3.33-123.86a7.12,7.12,0,0,1,3-5.33c19.24-10.92,38.71-21.45,57.93-32.39,6-3.41,10.68-2.82,15.71,1.74,18.76,17,37.73,33.76,56.5,50.74a7.92,7.92,0,0,1,2.4,5.11Q468.35,420,469.33,478A14.45,14.45,0,0,1,468.78,480.12Z" transform="translate(-197.5 -1.05)"/><path class="cls-1" d="M323.7,341.51c0.54,5.44,1.27,10.18,1.45,14.94q2.38,62.16,4.51,124.34c0,1.36-.78,3.61-1.78,4-13.12,5.17-26.34,10.08-40.22,15.32a78.26,78.26,0,0,1-1.23-8.26q-2.09-55.18-4-110.36c-0.26-7.32-.52-14.65-0.52-22,0-1.57.64-4,1.73-4.57C296.17,348.81,309.44,344.8,323.7,341.51Z" transform="translate(-197.5 -1.05)"/><path class="cls-1" d="M300.67,500.46a30.28,30.28,0,0,1,4-2.67c10.14-4.17,20.3-8.31,30.5-12.33a11.84,11.84,0,0,1,4.42-.45c41.44,0.66,82.89,1.42,124.33,1.94,4.74,0.06,5.88,1.79,5.76,6.14-0.44,15.15,1.11,13.05-12.9,12.69-50.08-1.3-100.16-3.06-150.23-4.66C305,501.06,303.41,500.77,300.67,500.46Z" transform="translate(-197.5 -1.05)"/><path class="cls-1" d="M292.34,345.56c2.47-1.79,4.85-3.74,7.43-5.36,26.18-16.42,52.47-32.67,78.53-49.28,4.55-2.9,8-3,11.76.58,1.08,1,2.32,1.84,4.61,3.64-32.9,20.21-64.48,41.29-101.6,51.56Z" transform="translate(-197.5 -1.05)"/></svg>