<?xml version="1.0" encoding="UTF-8" standalone="no"?>
<!-- Created with Inkscape (http://www.inkscape.org/) -->

<svg
   xmlns:dc="http://purl.org/dc/elements/1.1/"
   xmlns:cc="http://creativecommons.org/ns#"
   xmlns:rdf="http://www.w3.org/1999/02/22-rdf-syntax-ns#"
   xmlns:svg="http://www.w3.org/2000/svg"
   xmlns="http://www.w3.org/2000/svg"
   xmlns:sodipodi="http://sodipodi.sourceforge.net/DTD/sodipodi-0.dtd"
   xmlns:inkscape="http://www.inkscape.org/namespaces/inkscape"
   id="svg6075"
   version="1.1"
   inkscape:version="0.91 r13725"
   width="567"
   height="560"
   viewBox="0 0 567 560"
   sodipodi:docname="House_Logo_black.svg">
  <metadata
     id="metadata6081">
    <rdf:RDF>
      <cc:Work
         rdf:about="">
        <dc:format>image/svg+xml</dc:format>
        <dc:type
           rdf:resource="http://purl.org/dc/dcmitype/StillImage" />
        <dc:title></dc:title>
      </cc:Work>
    </rdf:RDF>
  </metadata>
  <defs
     id="defs6079" />
  <sodipodi:namedview
     pagecolor="#ffffff"
     bordercolor="#666666"
     borderopacity="1"
     objecttolerance="10"
     gridtolerance="10"
     guidetolerance="10"
     inkscape:pageopacity="0"
     inkscape:pageshadow="2"
     inkscape:window-width="1366"
     inkscape:window-height="705"
     id="namedview6077"
     showgrid="false"
     inkscape:zoom="0.42142857"
     inkscape:cx="905.19492"
     inkscape:cy="292.61583"
     inkscape:window-x="-8"
     inkscape:window-y="-8"
     inkscape:window-maximized="1"
     inkscape:current-layer="svg6075" />
  <path
     style="fill:#a0a0a0;stroke:none;stroke-width:1px;stroke-linecap:butt;stroke-linejoin:miter;stroke-opacity:1"
     d=""
     id="path6099"
     inkscape:connector-curvature="0" />
  <path
     style="fill:#a0a0a0;stroke:none;stroke-width:1px;stroke-linecap:butt;stroke-linejoin:miter;stroke-opacity:1"
     d=""
     id="path6105"
     inkscape:connector-curvature="0" />
  <path
     style="fill:#a0a0a0;stroke:none;stroke-width:1px;stroke-linecap:butt;stroke-linejoin:miter;stroke-opacity:1"
     d=""
     id="path6107"
     inkscape:connector-curvature="0" />
  <path
     style="fill:#a0a0a0;stroke:none;stroke-width:1px;stroke-linecap:butt;stroke-linejoin:miter;stroke-opacity:1"
     d=""
     id="path6109"
     inkscape:connector-curvature="0" />
  <path
     style="fill:#000000;stroke:none;stroke-width:1px;stroke-linecap:butt;stroke-linejoin:miter;stroke-opacity:1"
     d=""
     id="path6161"
     inkscape:connector-curvature="0" />
  <path
     style="fill:#000000;stroke:none;stroke-width:1px;stroke-linecap:butt;stroke-linejoin:miter;stroke-opacity:1"
     d=""
     id="path6163"
     inkscape:connector-curvature="0" />
  <path
     style="fill:#000000;stroke:none;stroke-width:1px;stroke-linecap:butt;stroke-linejoin:miter;stroke-opacity:1"
     d=""
     id="path6169"
     inkscape:connector-curvature="0" />
  <g
     id="g6173">
    <path
       inkscape:connector-curvature="0"
       id="path6091"
       d="m 284.53923,551.20995 c -17.61864,-0.13325 -49.91949,-0.87359 -71.77966,-1.64521 -21.86017,-0.77162 -69.73372,-1.73949 -106.38567,-2.15083 -36.651948,-0.41134 -67.038218,-1.14687 -67.525058,-1.63452 -0.48683,-0.48766 -1.0651,-6.62749 -1.28505,-13.64407 -0.21994,-7.01659 -1.19982,-30.90997 -2.17751,-53.09641 -0.97769,-22.18644 -2.34493,-55.02119 -3.03832,-72.96611 -0.69339,-17.94491 -1.73277,-36.8983 -2.30973,-42.11864 -0.57696,-5.22034 -1.07781,-12.50558 -1.113,-16.18942 l -0.064,-6.6979 13.94068,-11.75835 c 14.38952,-12.13694 42.51871,-34.64114 56.05932,-44.84915 26.471998,-19.95673 56.066138,-44.98941 76.525428,-64.73025 10.64477,-10.27097 10.7101,-10.31085 21.01638,-12.8271 15.06948,-3.67918 15.4868,-3.60004 21.10226,4.00132 5.26972,7.13336 7.65146,8.10472 8.78626,3.58334 0.54212,-2.15994 3.96703,-4.85868 12.88286,-10.15135 6.67945,-3.96509 13.54445,-7.49933 15.25557,-7.85386 1.71113,-0.35454 6.78317,-4.10573 11.27119,-8.33597 8.963,-8.44819 15.5998,-12.76824 21.50751,-13.99977 2.96286,-0.61764 3.85593,-1.41907 3.85593,-3.4603 0,-12.82565 17.1647,-38.01634 30.11047,-44.18975 12.28408,-5.85787 22.90994,7.49434 19.6916,24.74402 -1.39367,7.46982 -6.67519,18.66572 -12.24867,25.9651 -3.84803,5.03962 -13.95364,11.74939 -17.6958,11.74939 -2.41953,0 -4.27675,2.47708 -5.15696,6.87814 -0.65132,3.25664 -0.3758,3.77659 2.36584,4.4647 l 3.10301,0.77881 0,36.70996 c 0,40.37142 -0.006,40.33472 7.41666,46.85173 4.96544,4.35972 16.37424,18.20279 29.76425,36.11496 l 10.27672,13.74746 0,93.67002 0,93.67003 -5.63559,5.38201 c -16.35809,15.62203 -29.06226,24.91683 -33.49575,24.50663 -1.64302,-0.15201 -17.40256,-0.38541 -35.0212,-0.51866 z m 32.63653,-56.4507 c 0.006,-33.68597 0.61177,-59.46505 1.76287,-75.04238 0.9644,-13.05085 1.76101,-31.71409 1.77024,-41.47388 l 0.0168,-17.74506 -4.9729,-7.1702 c -6.345,-9.14855 -10.94592,-14.87457 -23.7946,-29.61331 -7.26216,-8.33044 -10.61284,-13.15786 -11.16105,-16.08005 -0.43086,-2.2967 -0.44718,-22.97617 -0.0363,-45.95439 0.41094,-22.97821 0.36137,-42.01413 -0.1101,-42.30204 -1.51054,-0.92238 -49.04988,-3.38937 -49.85223,-2.58701 -0.42476,0.42475 -1.09621,10.61739 -1.49213,22.65032 -0.39591,12.03292 -1.10024,22.25843 -1.56516,22.72336 -0.93504,0.93502 -3.40025,-1.77696 -24.68949,-27.16092 -8.03781,-9.58378 -15.03637,-17.45878 -15.55235,-17.5 -0.51598,-0.0413 -8.25751,6.67666 -17.20339,14.92864 -17.07979,15.75499 -47.21814,40.60677 -73.214358,60.37185 -18.5825,14.12838 -48.20685,37.91008 -55.89991,44.87505 -6.2581,5.66583 -6.06299,4.5136 -4.14784,24.49527 0.6567,6.85169 1.76901,28.74152 2.47179,48.64407 0.70278,19.90254 1.81274,48.4661 2.46658,63.47457 0.65384,15.00848 1.52602,35.98459 1.93817,46.61358 0.41215,10.62901 1.15618,19.57689 1.6534,19.88418 0.49722,0.3073 38.45316,1.14116 84.346518,1.85301 45.89336,0.71185 93.31959,1.68217 105.39163,2.15626 12.07203,0.47409 35.43008,0.95438 51.90678,1.06731 l 29.95762,0.20532 0.01,-51.31355 -8e-5,0 z m 22.55537,36.25031 12.64547,-10.22779 0.7847,-60.51571 c 1.15118,-88.77725 1.02541,-118.26105 -0.50444,-118.26105 -1.86296,0 -18.57639,11.70981 -23.86886,16.72307 l -4.50301,4.26545 0,15.14274 c 0,8.3285 -0.85444,27.23109 -1.89875,42.00574 -1.41534,20.0239 -1.78067,38.64526 -1.43496,73.14198 0.25509,25.45345 0.89658,46.97925 1.42555,47.83513 1.42705,2.309 3.47582,1.11551 17.3543,-10.10956 z M 338.1309,346.4137 c 6.73999,-4.70867 12.56986,-9.53375 12.95526,-10.72236 0.75033,-2.31409 -11.71912,-19.5657 -28.16813,-38.97085 -10.12196,-11.94104 -12.99325,-14.01206 -16.00876,-11.54687 -3.79123,3.09935 -20.59038,24.00896 -20.59038,25.62848 0,0.8854 4.34613,6.53308 9.65808,12.55042 5.31194,6.01735 13.43848,15.891 18.05899,21.94146 5.64323,7.38969 8.96543,10.78418 10.12066,10.34089 0.94585,-0.36296 7.23429,-4.51248 13.97428,-9.22117 z m -41.66117,-56.06365 8.83221,-11.09423 0,-35.17422 0,-35.17421 -9.78813,5.29039 -9.78814,5.29038 -1.02869,39.87142 c -0.56578,21.92928 -0.70303,40.72008 -0.30499,41.75735 1.0312,2.68726 2.18723,1.6567 12.07774,-10.76688 z m -70.77758,-51.75164 0.11827,-10.271 -7.863,-9.30527 c -4.32465,-5.1179 -8.02051,-9.4863 -8.21303,-9.70756 -0.66436,-0.76354 -13.68083,2.58366 -15.65179,4.02487 -2.89647,2.11795 -1.64954,4.08518 15.08972,23.80621 16.84737,19.84843 16.30856,19.80104 16.51983,1.45275 z m 62.52302,-24.78545 c 3.88069,-1.87861 6.13974,-4.28531 9.96498,-10.61631 2.72065,-4.50284 4.76868,-9.10912 4.55117,-10.23619 -0.26494,-1.3728 -1.89501,0.3804 -4.93835,5.31138 -5.31562,8.61265 -8.06138,10.67365 -14.17444,10.63953 l -4.48003,-0.025 4.18342,-4.63053 c 5.14735,-5.6975 5.54889,-9.36947 1.02457,-9.36947 -3.48754,0 -12.61501,5.4058 -16.98929,10.06201 -3.05713,3.25417 -5.47094,3.83526 -6.25498,1.50579 -0.39332,-1.16861 -0.90129,-1.15116 -2.39591,0.0823 -2.03885,1.68265 -6.15934,0.33919 -7.03722,-2.29444 -0.2821,-0.84629 -2.97499,0.0756 -7.22204,2.47254 -10.26857,5.79522 -9.40314,6.80617 7.07785,8.268 20.58075,1.82547 31.20269,1.48686 36.69027,-1.16964 z m 7.71124,-18.31928 c 4.10103,-9.27104 -0.35682,-12.42022 -11.84427,-8.36721 -5.49067,1.93722 -16.07677,8.8249 -15.08613,9.81555 0.35228,0.35227 3.29174,-0.50004 6.53214,-1.89402 9.69631,-4.17124 15.5365,-3.02783 15.5365,3.04175 0,4.39045 2.31907,3.15212 4.86176,-2.59607 z m -21.12164,-7.74684 c 5.23972,-4.12157 13.0713,-7.04463 18.94682,-7.07171 5.1167,-0.0236 5.87607,0.33977 8.00403,3.82988 2.33182,3.82445 2.35104,3.83079 2.35544,0.7771 0.01,-6.67579 -8.94664,-10.3941 -18.40982,-7.64308 -5.63495,1.63813 -15.99252,9.02625 -15.99252,11.40758 0,1.74368 1.81566,1.28058 5.09605,-1.29977 z m 43.22882,-4.34121 c 9.27368,-4.40065 19.30225,-23.64379 19.30225,-37.03777 0,-7.5121 -1.26943,-6.887 -3.35909,1.6541 -3.27419,13.38272 -16.20989,32.62712 -21.93127,32.62712 -3.02522,0 -2.51865,-0.99964 3.99863,-7.8907 10.04191,-10.61785 16.18112,-28.32012 11.24286,-32.41851 -1.72445,-1.43117 -2.53802,-1.36674 -5.95102,0.47128 -4.39271,2.36564 -12.46088,10.17691 -10.51159,10.17691 0.68318,0 2.93465,-0.59002 5.00329,-1.31114 4.32616,-1.50811 7.2709,0.0619 7.2709,3.87656 0,4.42016 -9.28627,19.97695 -11.92478,19.97695 -1.94821,0 -1.23172,-2.49799 1.72401,-6.01069 4.06356,-4.82926 7.37371,-13.90112 5.68752,-15.58731 -0.96688,-0.96688 -1.83297,-0.89131 -3.24846,0.28344 -3.34763,2.77829 -8.72226,11.3684 -10.63156,16.99213 -1.76016,5.18441 -1.72339,5.64372 0.86209,10.76853 3.06072,6.06681 5.496,6.73669 12.46622,3.4291 z m -16.76555,-12.95994 c -0.57429,-1.49659 -1.14559,-1.70188 -2.09474,-0.75272 -0.7178,0.71779 -0.94974,2.23109 -0.51543,3.36289 0.5743,1.49658 1.14559,1.70187 2.09475,0.75272 0.71779,-0.7178 0.94973,-2.2311 0.51542,-3.36289 z m -3.08474,-10.03613 c 0,-0.61403 -0.5339,-1.11642 -1.18644,-1.11642 -0.65255,0 -1.18644,0.83236 -1.18644,1.84969 0,1.01732 0.53389,1.51971 1.18644,1.11642 0.65254,-0.4033 1.18644,-1.23565 1.18644,-1.84969 z m 16.24377,-20.41321 c 5.298,-5.08423 10.41663,-6.95012 16.40166,-5.97888 3.10768,0.50431 4.13423,0.24937 4.13423,-1.02672 0,-4.19886 -6.83414,-5.94775 -13.43503,-3.4381 -4.68389,1.78081 -11.34104,8.27437 -17.55696,17.12552 -7.47404,10.64265 -7.46957,13.54963 0.007,4.66809 3.18717,-3.78599 7.88919,-8.89345 10.44892,-11.34991 l 6e-5,0 z"
       style="fill:#000000;stroke:none;stroke-width:1px;stroke-linecap:butt;stroke-linejoin:miter;stroke-opacity:1" />
    <path
       inkscape:connector-curvature="0"
       id="path6093"
       d="m 363.04217,177.72897 c -9.40372,-3.84188 -15.84837,-8.28637 -18.62957,-12.84772 -4.60907,-7.55919 -2.30883,-9.22508 2.71339,-1.96509 3.05713,4.4193 10.2261,9.97656 11.38061,8.82204 0.28487,-0.28486 -1.42558,-2.66918 -3.80099,-5.29847 -13.53019,-14.97631 7.3488,-29.60653 42.34014,-29.66836 11.31658,-0.02 11.76093,0.0813 15.12712,3.44746 4.07311,4.07311 4.31326,6.83414 1.13609,13.0619 -3.23399,6.33915 -10.71778,12.3901 -19.39971,15.68549 -6.04386,2.29405 -9.58248,2.78455 -20.08859,2.78455 -7.01386,0 -12.75327,0.31473 -12.75424,0.69939 -10e-4,0.38466 1.3581,1.31899 3.02016,2.07627 9.07898,4.13666 37.32401,-2.51003 50.69137,-11.92881 7.37571,-5.197 10.79399,-20.6616 5.69426,-25.76133 -6.96758,-6.96758 -49.0324,-3.02609 -67.48213,6.3231 -7.54168,3.82165 -10.15384,3.91059 -5.94298,0.20235 3.78958,-3.33726 18.08422,-8.28724 31.15283,-10.78767 13.18354,-2.52243 36.00555,-2.55873 40.828,-0.065 10.9696,5.6726 9.24748,24.03476 -3.14243,33.50647 -5.64156,4.3128 -14.77361,7.97987 -27.53271,11.05608 -15.3558,3.70226 -17.708,3.76334 -25.31062,0.6573 z m 30.32019,-14.07015 c 6.69028,-3.27325 16.34636,-12.41691 16.34636,-15.47892 0,-0.9211 -1.00355,-2.91406 -2.23012,-4.42881 -4.60519,-5.68717 -24.48853,-4.11373 -40.47825,3.20319 -10.41967,4.76806 -13.29189,8.43393 -11.09453,14.16015 2.72812,7.10938 25.02965,8.6243 37.45654,2.54439 z"
       style="fill:#a0a0a0;stroke:none;stroke-width:1px;stroke-linecap:butt;stroke-linejoin:miter;stroke-opacity:1" />
    <path
       inkscape:connector-curvature="0"
       id="path6095"
       d="m 365.40108,159.49633 c -1.07995,-1.19333 -1.96355,-2.96891 -1.96355,-3.94573 0,-4.89397 11.82457,-10.49474 22.15691,-10.49474 4.7338,0 5.33552,0.34788 7.13745,4.12659 1.87001,3.92144 1.85445,4.25188 -0.313,6.64689 -3.90342,4.31323 -8.30781,5.83669 -16.87415,5.83669 -6.41799,0 -8.60309,-0.46739 -10.14366,-2.1697 z m 15.81779,-1.49719 c 4.27563,-0.91696 6.60694,-2.16883 8.00096,-4.29638 1.85892,-2.83707 1.84022,-3.09787 -0.33973,-4.73688 -4.69705,-3.53148 -20.69065,0.85828 -21.67084,5.948 -0.23645,1.2278 0.69096,2.45049 2.36901,3.12327 3.67925,1.47511 4.59917,1.47211 11.6406,-0.038 z"
       style="fill:#a0a0a0;stroke:none;stroke-width:1px;stroke-linecap:butt;stroke-linejoin:miter;stroke-opacity:1" />
    <path
       inkscape:connector-curvature="0"
       id="path6097"
       d="m 474.73972,123.08121 c -0.3403,-0.3403 -11.59448,-1.3317 -25.0093,-2.20311 -27.24296,-1.76968 -30.32554,-2.69789 -34.28134,-10.32259 -4.29534,-8.27919 1.30063,-17.805105 12.75164,-21.706857 6.56223,-2.235975 27.91035,-2.614245 35.49105,-0.628875 2.61017,0.6836 7.41525,1.72571 10.67797,2.315803 7.68873,1.390575 22.33973,8.642701 25.45099,12.598039 3.93136,4.99791 3.28693,11.64194 -1.60354,16.53241 -3.9096,3.9096 -4.32391,4.03389 -13.44632,4.03389 -5.17684,0 -9.69086,-0.27842 -10.03115,-0.61871 z m 20.70439,-5.45913 c 2.66901,-3.22541 3.70422,-7.36527 2.77127,-11.08244 -0.91159,-3.63208 -7.48536,-7.564548 -20.87954,-12.490272 -9.54565,-3.510422 -11.0361,-3.714857 -27.88136,-3.82429 -19.56232,-0.12708 -22.62524,0.564068 -28.77118,6.492219 -4.10071,3.955393 -4.89195,7.986993 -2.5684,13.086653 1.49842,3.28865 6.88447,6.77733 10.46332,6.77733 3.48746,0 3.0256,-1.38302 -1.38928,-4.16008 -7.76946,-4.88716 -6.64119,-13.028439 2.32473,-16.774642 14.36959,-6.004 46.01927,-2.683928 55.73505,5.846642 4.50955,3.95944 4.91853,6.51247 1.68325,10.50749 -2.20656,2.72473 -2.7877,2.8038 -21.3626,2.90647 -19.11326,0.10564 -25.00392,0.92881 -15.3338,2.14277 2.83311,0.35566 11.29095,1.42301 18.79518,2.3719 16.71531,2.11359 23.56108,1.64713 26.41336,-1.79975 z m -52.51505,-6.50564 c 0,-0.39549 -1.33475,-1.76899 -2.9661,-3.05221 -6.53078,-5.13712 -1.65875,-9.27956 10.91393,-9.27956 6.57484,0 11.738,1.89707 14.62247,5.37264 1.42483,1.71681 1.26235,2.25069 -1.26511,4.15716 -2.64351,1.994 -2.71058,2.26002 -0.7587,3.00903 2.2054,0.84629 13.33886,-0.0935 16.78817,-1.41715 3.02332,-1.16015 1.66841,-5.40286 -2.65313,-8.30791 -7.79887,-5.242607 -33.4942,-7.382397 -43.28547,-3.604619 -10.97783,4.235599 -7.7749,13.522249 4.74801,13.766489 2.12076,0.0414 3.85593,-0.24838 3.85593,-0.64387 z m 13.19915,-5.21313 c 6.1275,0 5.81143,-1.713 -0.78057,-4.23051 -4.50565,-1.720721 -6.13345,-1.827563 -10.03494,-0.65865 -2.5613,0.76739 -4.98057,1.91894 -5.37616,2.55902 -1.04569,1.69197 4.2075,3.54916 8.1832,2.89306 1.87606,-0.3096 5.47987,-0.56292 8.00847,-0.56292 z"
       style="fill:#a0a0a0;stroke:none;stroke-width:1px;stroke-linecap:butt;stroke-linejoin:miter;stroke-opacity:1" />
    <path
       inkscape:connector-curvature="0"
       id="path6101"
       d="m 512.29349,60.431693 c -13.80962,-5.340265 -15.09958,-17.320955 -2.38377,-22.139635 4.47458,-1.695645 11.51193,-0.53178 18.69708,3.0922 5.96311,3.007615 8.05107,5.67211 8.05107,10.274125 0,7.272895 -14.62555,12.53938 -24.36438,8.77331 z m 16.94913,-5.06723 c 3.68463,-2.373025 3.33944,-5.63564 -0.98086,-9.270935 -5.47672,-4.608355 -7.70228,-3.88377 -4.05686,1.3208 1.59445,2.27639 1.58543,2.74636 -0.0847,4.416535 -2.34511,2.34511 -9.24383,2.4357 -11.14384,0.146335 -2.23382,-2.69159 -0.3155,-6.588035 3.63218,-7.37757 1.91872,-0.383745 3.82785,-1.24666 4.24251,-1.91759 1.23307,-1.99514 -10.43288,0.0971 -12.8776,2.309535 -8.74072,7.91024 10.51307,17.300215 21.26922,10.37289 z m -8.65236,-5.14188 c 0.37542,-0.607455 0.11442,-1.45561 -0.58002,-1.884795 -1.75589,-1.0852 -5.0211,0.336845 -4.12026,1.794435 0.92732,1.500425 3.79474,1.555555 4.70028,0.09036 z"
       style="fill:#a0a0a0;stroke:none;stroke-width:1px;stroke-linecap:butt;stroke-linejoin:miter;stroke-opacity:1" />
    <path
       inkscape:connector-curvature="0"
       id="path6103"
       d="m 507.59007,67.434028 c -5.65643,-2.0761 -14.33311,-11.141475 -15.42591,-16.116955 -0.97953,-4.459735 1.04872,-10.752075 4.51563,-14.009065 3.611,-3.392365 16.5485,-6.594595 23.04541,-5.704095 7.70988,1.05676 17.11811,5.33318 20.78861,9.44927 5.96111,6.68479 3.37917,17.15706 -5.84245,23.696735 -3.86406,2.74027 -6.28574,3.43555 -13.52131,3.88205 -6.01538,0.3712 -10.32116,-0.0092 -13.55998,-1.19794 z m 23.25378,-4.99142 c 5.01486,-2.936685 8.0924,-7.241025 8.94831,-12.51534 0.6624,-4.08192 0.39367,-4.532985 -5.07335,-8.515585 -3.17504,-2.312945 -8.30047,-4.816735 -11.38984,-5.56397 -6.28261,-1.519595 -16.29893,-0.59444 -21.30247,1.967595 -10.71442,5.486265 -8.5754,18.33943 4.12558,24.790155 5.26303,2.673055 7.27974,3.059815 13.5446,2.597545 4.13798,-0.30533 9.01866,-1.513945 11.14717,-2.7604 z"
       style="fill:#a0a0a0;stroke:none;stroke-width:1px;stroke-linecap:butt;stroke-linejoin:miter;stroke-opacity:1" />
    <path
       inkscape:connector-curvature="0"
       id="path6111"
       d="m 427.50533,14.477363 c 0,-0.691055 0.5339,-0.926495 1.18644,-0.5232 1.52029,0.939585 1.52029,1.77966 0,1.77966 -0.65254,0 -1.18644,-0.56541 -1.18644,-1.25646 z"
       style="fill:#a0a0a0;stroke:none;stroke-width:1px;stroke-linecap:butt;stroke-linejoin:miter;stroke-opacity:1" />
    <path
       inkscape:connector-curvature="0"
       id="path6113"
       d="m 352.0477,79.327043 c -3.33215,-3.33216 -4.03389,-4.918145 -4.03389,-9.11694 0,-7.046315 3.84538,-14.29433 10.9934,-20.72101 8.07024,-7.25584 11.35806,-8.80068 20.55867,-9.659845 l 7.75636,-0.7243 3.88844,-6.04997 c 8.12576,-12.642755 20.39973,-20.863255 34.41235,-23.047685 8.78731,-1.3698547 13.82943,-0.06265 19.38051,5.024535 3.63223,3.32869 4.29832,4.775025 4.75934,10.334345 0.49073,5.91759 0.19559,6.911915 -3.49167,11.76327 -5.40157,7.10688 -17.02983,15.74514 -25.49985,18.94302 -6.63453,2.50489 -11.4201,2.69483 -23.44318,0.930465 -1.70692,-0.250485 -2.49289,0.57606 -3.06422,3.22242 -1.85025,8.570145 -8.90055,17.16547 -17.15603,20.91567 -3.10622,1.41106 -7.60915,2.176905 -12.89921,2.193865 -7.67593,0.0246 -8.35107,-0.197895 -12.16102,-4.00784 z m 24.23046,-2.726 c 6.96854,-3.300085 12.40033,-9.66819 14.64926,-17.174455 1.9232,-6.41906 3.50692,-7.439395 8.82361,-5.68473 6.54297,2.159375 16.98636,0.79483 24.37177,-3.18445 9.18401,-4.948365 22.1236,-17.496685 23.03124,-22.33482 0.87647,-4.671995 -1.59989,-10.086785 -5.90226,-12.9058 -5.91703,-3.876985 -21.53237,-1.5641 -32.41474,4.801145 -5.56556,3.25537 -15.73849,13.924995 -15.73849,16.50692 0,0.908235 -1.0678,2.71914 -2.37288,4.024225 -1.94582,1.945815 -3.9548,2.37288 -11.16243,2.37288 -8.671,0 -8.87902,0.07288 -15.42373,5.404165 -3.6488,2.972295 -6.63418,5.908735 -6.63418,6.525425 0,1.66 0.39779,1.491515 7.05396,-2.987755 11.94276,-8.036885 22.60706,-6.447995 22.60706,3.368255 0,12.738165 -20.87655,25.889175 -29.72438,18.724635 -2.25735,-1.82789 -2.67022,-3.235745 -2.52254,-8.601695 0.16169,-5.87517 0.0294,-6.22366 -1.56977,-4.133685 -2.77507,3.62689 -3.55209,10.20312 -1.61469,13.66592 2.07059,3.70087 8.47443,6.08194 14.07545,5.233515 2.28389,-0.345955 6.99438,-1.97482 10.46774,-3.619695 z m -3.3491,-8.57475 c 4.52507,-2.261315 9.49153,-8.621115 9.49153,-12.15438 0,-1.226325 -1.34476,-2.83557 -2.99959,-3.58956 -2.44406,-1.11359 -4.01885,-0.944085 -8.50323,0.915265 -3.02701,1.25508 -5.75428,3.034415 -6.06061,3.954075 -0.4114,1.235095 0.028,1.429515 1.6812,0.743885 8.42452,-3.49387 8.86302,-3.581575 9.85798,-1.9717 2.50141,4.047365 -2.48115,9.64045 -8.58811,9.64045 -2.4086,0 -3.58817,-0.69506 -4.02693,-2.37288 -0.78443,-2.99967 -2.28153,-3.02991 -3.86134,-0.078 -1.67165,3.123495 -1.54625,6.867845 0.25486,7.609985 2.18638,0.900885 8.02503,-0.333815 12.75424,-2.697145 z m -0.88983,-6.97885 c 2.21584,-1.902945 2.73831,-3.788195 1.04983,-3.788195 -1.91354,0 -7.30554,4.92884 -6.61475,6.04656 0.73771,1.19363 2.26887,0.57225 5.56492,-2.258365 z"
       style="fill:#a0a0a0;stroke:none;stroke-width:1px;stroke-linecap:butt;stroke-linejoin:miter;stroke-opacity:1" />
    <path
       inkscape:connector-curvature="0"
       id="path6115"
       d="m 401.70025,46.012743 c -2.02703,-1.472265 -2.6695,-3.12224 -2.6695,-6.855785 0,-4.432495 0.68028,-5.57843 6.90527,-11.63205 11.40136,-11.08749 27.64136,-15.318415 34.08087,-8.878915 1.60169,1.601695 2.90044,3.870765 2.88611,5.042375 -0.0479,3.91209 -4.40365,11.82857 -7.84416,14.256435 -11.9656,8.44376 -27.62633,12.231385 -33.35859,8.06794 z m 23.92383,-6.50093 c 10.25407,-4.96391 14.73079,-14.404505 8.70328,-18.353675 -5.08354,-3.330695 -19.8267,2.754855 -27.64828,11.41241 -5.92817,6.56178 -5.43312,8.773155 2.33286,10.42071 4.54747,0.96475 9.63126,-0.10005 16.61214,-3.479445 z"
       style="fill:#a0a0a0;stroke:none;stroke-width:1px;stroke-linecap:butt;stroke-linejoin:miter;stroke-opacity:1" />
    <path
       inkscape:connector-curvature="0"
       id="path6117"
       d="m 412.53724,36.565838 c -1.37358,-3.579505 0.36815,-6.113015 6.44565,-9.375815 7.36461,-3.9538 12.08176,-3.63473 12.08176,0.817215 0,6.53659 -16.39677,14.110955 -18.52741,8.5586 z m 11.46769,-3.659095 c 3.49927,-1.80954 4.96496,-6.51423 2.01735,-6.47544 -2.27338,0.0299 -10.72756,5.129285 -11.27782,6.80252 -0.68886,2.0947 4.96331,1.895065 9.26047,-0.32708 z"
       style="fill:#a0a0a0;stroke:none;stroke-width:1px;stroke-linecap:butt;stroke-linejoin:miter;stroke-opacity:1" />
    <path
       inkscape:connector-curvature="0"
       id="path6119"
       d="m 264.10213,143.75884 c -10.83933,-5.36539 -12.84771,-16.85744 -4.88738,-27.96596 4.39196,-6.12892 7.18455,-7.21517 14.85139,-5.77687 5.11708,0.95997 11.75424,7.59219 13.53033,13.52025 1.79256,5.98305 -0.0605,11.86047 -5.71137,18.11535 -4.9367,5.46434 -9.82954,6.04412 -17.78297,2.10723 z m 13.05927,-2.16377 c 3.78989,-1.44091 6.78461,-8.03117 6.78461,-14.93038 0,-4.7582 -0.59097,-6.16591 -4.0339,-9.60883 -2.70491,-2.70491 -5.1479,-4.03244 -7.41525,-4.02947 l -3.38136,0.004 3.78021,2.30496 c 4.89526,2.98485 6.30454,5.77737 6.30454,12.49261 0,7.1024 -3.77742,11.29526 -10.17609,11.29526 -3.7337,0 -4.14198,0.25275 -2.87476,1.77966 1.66359,2.0045 6.72324,2.32234 11.012,0.69176 z m -16.66971,-14.03921 c 0.30301,-4.40467 0.40458,-8.19157 0.2257,-8.41535 -0.17887,-0.22377 -1.16544,1.21794 -2.19237,3.2038 -1.9416,3.75463 -2.38319,8.12184 -1.14699,11.34332 1.47076,3.83273 2.57821,1.65182 3.11366,-6.13177 z m 11.40788,4.74576 c 3.85211,-3.25954 4.4254,-7.91765 1.35264,-10.99041 -1.88679,-1.88679 -2.95027,-2.2384 -3.89942,-1.28925 -0.94915,0.94915 -0.9168,1.69337 0.11864,2.72881 0.78305,0.78305 1.42373,2.38475 1.42373,3.55932 0,1.58192 -0.92279,2.1356 -3.55932,2.1356 -4.01764,0 -4.87136,2.67722 -1.48305,4.65073 2.82227,1.64382 3.22783,1.59051 6.04678,-0.7948 z m -6.34339,-16.90678 c 0.40329,-0.65254 0.19936,-1.18644 -0.45318,-1.18644 -0.65254,0 -1.51641,0.5339 -1.9197,1.18644 -0.4033,0.65254 -0.19937,1.18644 0.45318,1.18644 0.65254,0 1.5164,-0.5339 1.9197,-1.18644 z"
       style="fill:#a0a0a0;stroke:none;stroke-width:1px;stroke-linecap:butt;stroke-linejoin:miter;stroke-opacity:1" />
    <path
       inkscape:connector-curvature="0"
       id="path6121"
       d="m 217.50533,518.80154 c -21.86017,-0.47892 -62.70339,-0.95288 -90.76271,-1.05324 -28.059318,-0.10037 -52.181288,-0.49474 -53.604368,-0.87641 -1.42308,-0.38166 -2.96445,-1.57564 -3.42527,-2.65329 -0.46082,-1.07764 -1.52707,-25.18393 -2.36944,-53.56952 -0.84237,-28.3856 -2.39697,-64.95093 -3.45467,-81.25629 -1.0577,-16.30537 -1.6474,-30.72062 -1.31045,-32.0339 0.3755,-1.46347 9.46856,-8.32036 23.49012,-17.71342 12.58261,-8.4291 33.822378,-22.89027 47.199498,-32.13594 33.70573,-23.29589 48.87959,-33.42721 52.61059,-35.12717 2.93531,-1.33741 3.85961,-0.99468 11.77049,4.36456 4.9444,3.34959 20.40859,17.41832 36.46638,33.1757 15.33475,15.04787 34.82203,33.52414 43.30509,41.05839 8.48305,7.53424 16.16003,14.58841 17.05997,15.67594 2.53087,3.05841 -0.80597,130.18007 -4.07391,155.20141 -0.57043,4.36758 -1.26365,5.66561 -3.29492,6.16963 -5.34925,1.32731 -31.21132,1.61472 -69.6064,0.77355 z m 68.17719,-6.24568 c 2.18147,-9.7828 5.26085,-84.04917 5.34247,-128.84612 0.0322,-17.63253 -0.32409,-22.53641 -1.87436,-25.80335 -1.06225,-2.23851 -8.05812,-9.44231 -15.72034,-16.18756 -7.59347,-6.68473 -26.63087,-24.70458 -42.30533,-40.04411 -15.67446,-15.33953 -31.53974,-29.96837 -35.25615,-32.50854 l -6.75713,-4.6185 -6.65483,4.02528 c -3.66015,2.2139 -11.82031,7.60341 -18.13368,11.9767 -6.31337,4.37328 -30.86606,20.92413 -54.56153,36.77966 l -43.082668,28.82823 0.72869,17.79661 c 0.40078,9.78814 1.49532,33.01271 2.43232,51.61017 0.93699,18.59746 1.77658,44.49153 1.86575,57.54237 0.0892,13.05085 0.49624,27.4661 0.9046,32.0339 l 0.74246,8.30509 6.52542,0.69644 c 3.58899,0.38305 51.229238,0.78347 105.867228,0.88983 l 99.34181,0.19339 0.59527,-2.66949 z"
       style="fill:#a0a0a0;stroke:none;stroke-width:1px;stroke-linecap:butt;stroke-linejoin:miter;stroke-opacity:1" />
    <path
       inkscape:connector-curvature="0"
       id="path6123"
       d="m 250.98175,270.48465 -6.18828,-6.26612 0.0162,-10.64066 c 0.0235,-15.442 0.26428,-15.97964 7.15607,-15.97964 9.07858,0 9.4379,0.81628 9.4379,21.44068 0,20.95554 -0.4942,21.49829 -10.42189,11.44574 z m 5.67612,-14.96288 c 0,-11.77231 -0.31096,-14.22968 -1.87669,-14.8305 -4.90813,-1.88343 -5.24195,-1.18393 -5.24195,10.98424 0,10.04453 0.34872,12.14774 2.45899,14.83051 1.35245,1.71936 2.95414,3.12611 3.55932,3.12611 0.61447,0 1.10033,-6.2306 1.10033,-14.11036 z"
       style="fill:#a0a0a0;stroke:none;stroke-width:1px;stroke-linecap:butt;stroke-linejoin:miter;stroke-opacity:1" />
    <path
       inkscape:connector-curvature="0"
       id="path6125"
       d="m 61.284182,533.36442 c -2.72249,-0.25843 -5.49588,-1.12765 -6.1631,-1.93161 -2.01362,-2.42624 -5.99318,-60.33558 -7.26953,-105.78373 -0.65973,-23.49153 -2.01636,-51.21203 -3.01475,-61.60111 -0.99838,-10.38908 -1.362,-19.1984 -0.80804,-19.57627 0.55397,-0.37787 4.1751,-3.13337 8.04697,-6.12335 11.23471,-8.67577 88.401288,-62.12767 131.438508,-91.0451 l 11.68687,-7.8526 4.33008,4.80616 c 23.21776,25.77054 46.92473,50.27131 77.69096,80.29237 l 36.58123,35.69522 -0.72865,7.78708 c -0.40076,4.2829 -1.2567,27.00743 -1.90208,50.49895 -0.99549,36.23526 -3.32693,113.24861 -3.45705,114.19492 -0.0984,0.71536 -39.45423,0.18995 -76.54736,-1.02193 -35.76089,-1.16835 -117.97012,-0.25938 -157.222228,1.73837 -4.24153,0.21587 -9.93935,0.18106 -12.66183,-0.0774 l 0,-10e-6 z m 158.120638,-4.16427 84.35713,0.33073 0.72856,-24.65277 c 0.40071,-13.55902 1.25385,-40.93666 1.89586,-60.8392 0.64202,-19.90255 1.49364,-46.94311 1.89249,-60.09015 l 0.7252,-23.90371 -45.83967,-45.48508 c -25.21182,-25.01679 -50.69985,-50.96563 -56.64007,-57.66409 -5.94022,-6.69845 -11.49013,-12.17901 -12.33314,-12.17901 -1.5825,0 -3.11163,1.01801 -53.80449,35.81997 -51.210888,35.1576 -73.764788,50.77115 -83.410038,57.74285 l -9.2575,6.69142 0.59977,8.30508 c 1.37592,19.05262 3.1467,58.15974 4.24407,93.72882 1.19292,38.66637 3.93769,75.36074 6.05325,80.92509 l 1.17281,3.08473 37.62933,-1.07271 c 20.696128,-0.58999 75.590028,-0.92388 121.986438,-0.74197 z"
       style="fill:#a0a0a0;stroke:none;stroke-width:1px;stroke-linecap:butt;stroke-linejoin:miter;stroke-opacity:1" />
    <path
       inkscape:connector-curvature="0"
       id="path6127"
       d="m 201.48838,506.09386 c -18.27118,-0.54043 -51.63983,-1.38555 -74.15254,-1.87806 l -40.932198,-0.89546 -0.81405,-8.89831 c -1.17639,-12.85912 -4.54875,-105.65912 -4.53587,-124.81705 0.007,-9.65955 0.56224,-17.46773 1.36934,-19.23912 1.9061,-4.18342 53.108038,-37.79822 90.134148,-59.17433 7.57938,-4.37576 14.15598,-7.95594 14.61467,-7.95594 1.54975,0 28.50324,18.79413 35.20235,24.54588 3.65671,3.1396 14.34246,12.91599 23.74612,21.72531 9.40365,8.80932 20.15968,18.65479 23.90228,21.87883 l 6.80473,5.86187 -0.14036,71.25678 c -0.0772,39.19122 -0.48241,72.85845 -0.90044,74.81608 l -0.76007,3.55932 -20.15888,0.0984 c -11.08739,0.0541 -35.10804,-0.34375 -53.37923,-0.88416 z m 69.84154,-1.92391 c 1.03218,-1.67009 1.30971,-16.70399 0.32653,-17.6878 -0.52679,-0.52713 -30.61857,-1.31928 -66.87061,-1.76031 l -65.9128,-0.80191 -18.33325,7.16098 c -12.23418,4.77867 -17.93816,7.55606 -17.14564,8.34858 1.13632,1.13632 35.45012,2.51595 108.7722,4.37333 51.52918,1.30532 58.55679,1.34892 59.16357,0.36713 z m -158.95837,-13.41904 20.03572,-7.57314 -0.80533,-35.01346 c -1.07196,-46.60594 -4.13364,-105.91922 -5.54091,-107.34289 -1.11234,-1.12532 -30.886768,8.25186 -38.341488,12.07529 l -3.42986,1.75913 0.67798,32.80683 c 0.7561,36.58683 2.87192,92.86963 3.92381,104.37699 0.45504,4.97805 1.14988,7.33111 2.06508,6.99338 0.75861,-0.27994 10.395358,-3.9169 21.414998,-8.08213 z m 134.48479,-11.34436 24.98784,-0.7782 -0.5046,-45.7896 c -0.27753,-25.18428 -0.81194,-52.33284 -1.18758,-60.33013 l -0.68298,-14.54053 -18.36052,-16.90015 c -24.69522,-22.73098 -41.81302,-37.54134 -45.75124,-39.58408 -3.09412,-1.60491 -3.94646,-1.32263 -17.79661,5.89392 -8.00076,4.16876 -23.35617,12.65617 -34.12312,18.86091 l -19.57627,11.28133 0,21.20525 c 0,19.9268 2.20173,85.05542 3.69337,109.25221 l 0.67369,10.92833 9.68088,0.39797 c 19.52235,0.80255 74.63895,0.8598 98.94714,0.10274 l 0,3e-5 z M 114.87821,339.3362 c 7.83051,-2.86337 21.44492,-9.23821 30.25424,-14.1663 28.80089,-16.11174 52.14782,-30.3864 51.47611,-31.47326 -0.36224,-0.58612 -2.78219,-2.40622 -5.37766,-4.04466 l -4.71903,-2.979 -24.68455,14.76238 c -27.89503,16.68237 -67.690818,42.43626 -67.703448,43.81436 -0.012,1.3078 4.59907,-0.006 20.754338,-5.91352 z"
       style="fill:#000000;stroke:none;stroke-width:1px;stroke-linecap:butt;stroke-linejoin:miter;stroke-opacity:1" />
    <path
       inkscape:connector-curvature="0"
       id="path6129"
       d="m 265.55618,143.93364 c -11.91801,-5.297 -13.84324,-19.76758 -3.9834,-29.94036 4.74904,-4.89976 10.50198,-5.34524 16.53395,-1.2803 8.65315,5.83136 11.48035,14.50586 7.47721,22.94184 -4.17544,8.79909 -11.78234,11.94353 -20.02776,8.27882 z m 12.20041,-2.54973 c 5.9796,-4.18827 8.27176,-16.40969 4.23357,-22.57274 -2.0717,-3.16182 -7.37394,-6.42303 -10.44286,-6.42303 -2.82902,0 -2.18154,1.83573 1.18917,3.37153 1.66526,0.75874 3.84408,3.33329 4.84182,5.72122 3.41183,8.16565 -0.64331,17.00894 -7.79955,17.00894 -4.22218,0 -5.64365,1.77413 -2.76446,3.45033 3.08386,1.79534 7.72829,1.55485 10.74231,-0.55625 z m -16.78454,-14.51382 c 0.81437,-7.7915 -0.48815,-9.71666 -2.93729,-4.34138 -1.50163,3.29571 -1.86484,11.51837 -0.56615,12.81705 1.58655,1.58656 2.74454,-1.21488 3.50344,-8.47567 z m 11.54098,4.93253 c 3.59018,-3.59018 3.98352,-7.011 1.16435,-10.12615 -2.54144,-2.80826 -5.62921,-2.8678 -4.84489,-0.0934 1.47933,5.23286 1.40369,5.58926 -1.27259,5.99606 -3.66285,0.55677 -4.74552,3.7136 -1.96973,5.74331 2.96072,2.16493 3.31618,2.08689 6.92286,-1.5198 z m -6.58609,-16.96745 c 0.29661,-0.88983 -0.1483,-1.33475 -1.03813,-1.03814 -0.85647,0.28549 -1.79079,1.21981 -2.07628,2.07627 -0.29661,0.88984 0.14831,1.33475 1.03814,1.03814 0.85646,-0.28549 1.79078,-1.21981 2.07627,-2.07627 z"
       style="fill:#000000;stroke:none;stroke-width:1px;stroke-linecap:butt;stroke-linejoin:miter;stroke-opacity:1" />
    <path
       inkscape:connector-curvature="0"
       id="path6131"
       d="m 303.72315,101.6562 c -10.44862,-8.218881 -5.74202,-44.398687 7.36286,-56.598572 6.10072,-5.679425 17.07503,-2.29985 20.32971,6.2606 3.08144,8.104805 -0.19266,31.31575 -5.85303,41.493636 -5.77214,10.378846 -15.09104,14.152716 -21.83954,8.844336 z m 16.34631,-6.304274 c 3.69694,-4.87422 7.22383,-15.622018 9.03626,-27.536958 1.7759,-11.67479 0.87735,-17.386875 -3.24519,-20.62966 -3.87187,-3.045615 -11.15794,-3.229875 -13.76154,-0.34802 -2.25443,2.495365 -9.16767,16.86101 -9.16899,19.05307 -0.002,3.0228 2.17508,0.149725 4.04525,-5.33892 2.56106,-7.516305 6.06258,-11.04466 10.96066,-11.04466 4.6934,0 6.97759,3.528845 8.18737,12.648645 1.40032,10.556095 -4.70131,27.40996 -11.44279,31.607172 -3.29537,2.051681 -8.09892,-0.08159 -10.22556,-4.541202 -2.6002,-5.452665 -4.37438,-5.27907 -3.3498,0.32776 2.23455,12.228207 11.85756,15.172687 18.96433,5.802773 z m -3.79814,-8.768878 c 1.75708,-1.97666 4.83065,-10.974575 3.74877,-10.974575 -0.28287,0 -2.07804,1.73517 -3.98928,3.855935 -2.88099,3.19684 -3.84142,3.63242 -5.61887,2.54832 -1.17914,-0.719185 -2.31451,-2.454355 -2.52303,-3.85593 -0.20852,-1.40158 -0.94413,-2.548325 -1.63468,-2.548325 -1.54803,0 -0.24581,9.2633 1.6179,11.508935 1.81715,2.18952 6.22731,1.908945 8.39919,-0.53436 z m -2.13835,-10.052125 c 2.28709,-3.265275 2.45361,-9.227535 0.25772,-9.227535 -1.93188,0 -4.34299,4.97108 -4.34299,8.95413 0,3.620345 1.66303,3.73164 4.08527,0.273405 z m 7.77914,-10.220005 c 0,-6.595835 -2.20601,-12.058375 -4.86969,-12.058375 -1.86052,0 -6.99472,6.07236 -6.99472,8.27285 0,1.50938 0.80789,1.875575 3.32331,1.50639 2.67853,-0.393125 3.59929,0.117955 4.74576,2.63419 0.78235,1.717075 1.42246,4.196135 1.42246,5.509025 0,1.31289 0.5339,2.05711 1.18644,1.653815 0.65254,-0.403295 1.18644,-3.786345 1.18644,-7.517895 z m -19.35902,4.329335 c -0.37874,-0.94646 -0.65987,-0.665325 -0.7168,0.71681 -0.0515,1.250705 0.22889,1.951445 0.62314,1.557205 0.39424,-0.394245 0.43639,-1.41755 0.0937,-2.274015 z"
       style="fill:#000000;stroke:#000000;stroke-width:0.5px;stroke-linecap:butt;stroke-linejoin:miter;stroke-opacity:1" />
    <path
       inkscape:connector-curvature="0"
       id="path6133"
       d="m 261.87512,260.69322 c 0,-9.46186 0.18426,-13.33263 0.40946,-8.6017 0.2252,4.73094 0.2252,12.47246 0,17.20339 -0.2252,4.73094 -0.40946,0.86017 -0.40946,-8.60169 z"
       style="fill:#000000;stroke:none;stroke-width:1px;stroke-linecap:butt;stroke-linejoin:miter;stroke-opacity:1" />
    <path
       inkscape:connector-curvature="0"
       id="path6135"
       d="m 250.98175,269.85083 -6.18828,-6.26613 0.11826,-9.45421 c 0.1775,-14.18947 0.68958,-15.31644 7.15205,-15.74017 3.58727,-0.23521 5.86602,0.21362 6.80034,1.33941 3.28772,3.96145 3.05162,36.38722 -0.26494,36.38722 -0.78603,0 -4.21387,-2.81976 -7.61743,-6.26612 z m 5.67612,-14.42134 c 0,-13.96624 -1.12588,-17.27987 -5.32387,-15.66895 -1.43477,0.55057 -1.79477,3.04389 -1.79477,12.43036 0,10.0958 0.34592,12.18141 2.46788,14.87905 1.35734,1.72557 2.95904,2.83386 3.55933,2.46286 0.60029,-0.371 1.09143,-6.71749 1.09143,-14.10332 z"
       style="fill:#000000;stroke:none;stroke-width:1px;stroke-linecap:butt;stroke-linejoin:miter;stroke-opacity:1" />
    <path
       inkscape:connector-curvature="0"
       id="path6137"
       d="m 261.67889,260.69322 c 0,-2.2839 0.24417,-3.21822 0.54259,-2.07627 0.29842,1.14195 0.29842,3.01059 0,4.15254 -0.29842,1.14195 -0.54259,0.20763 -0.54259,-2.07627 z"
       style="fill:#000000;stroke:none;stroke-width:1px;stroke-linecap:butt;stroke-linejoin:miter;stroke-opacity:1" />
    <path
       inkscape:connector-curvature="0"
       id="path6141"
       d="m 60.301942,532.73448 c -1.95763,-0.29091 -3.93275,-0.88828 -4.38917,-1.32747 -2.21877,-2.13506 -4.99506,-40.40354 -7.46023,-102.83243 -0.9534,-24.14407 -2.36747,-52.66007 -3.14237,-63.36887 l -1.40893,-19.47057 3.46185,-3.09316 c 5.98286,-5.34569 74.010098,-52.7697 132.014078,-92.03133 l 15.77211,-10.67579 4.23105,4.74358 c 15.57316,17.45964 57.35998,60.46244 83.46261,85.89134 27.78257,27.06547 30.82042,30.40116 30.23491,33.19925 -0.57554,2.7505 -2.52265,58.23196 -4.94308,140.85007 l -0.80275,27.40047 -108.68452,-0.11236 c -59.7765,-0.0617 -114.557418,0.21812 -121.735388,0.62196 -7.17797,0.40383 -14.65254,0.49623 -16.61017,0.20531 z M 303.85301,529.4703 c 0.1819,-0.17283 1.49863,-38.23967 2.92607,-84.59299 l 2.59535,-84.27874 -57.44551,-57.96115 c -31.59503,-31.87863 -58.07956,-57.89682 -58.85449,-57.81819 -1.49343,0.15154 -49.80741,33.01934 -109.340288,74.38376 l -35.88983,24.93684 0.005,5.43771 c 0.003,2.99074 0.51995,13.98009 1.14871,24.42076 0.62875,10.44068 1.70787,34.73306 2.39803,53.98306 2.0906,58.31138 4.55081,93.48146 6.98754,99.89102 l 1.04019,2.73609 122.048988,-0.41196 c 67.12694,-0.22658 122.19782,-0.55337 122.37972,-0.72621 z"
       style="fill:#000000;stroke:none;stroke-width:1px;stroke-linecap:butt;stroke-linejoin:miter;stroke-opacity:1" />
    <path
       inkscape:connector-curvature="0"
       id="path6143"
       d="m 161.1494,517.93139 c -47.63559,-0.58461 -87.388468,-1.48573 -88.339728,-2.00249 -0.95126,-0.51676 -2.10474,-2.49729 -2.56329,-4.40118 -0.45856,-1.90389 -1.7113,-28.02094 -2.78388,-58.03789 -1.07257,-30.01695 -2.44411,-62.3178 -3.04786,-71.77966 -0.60375,-9.46187 -1.10872,-21.24466 -1.12216,-26.18398 l -0.0245,-8.98059 8.00847,-5.92393 c 12.79104,-9.46163 110.940808,-76.01849 114.481858,-77.6319 2.84672,-1.29705 3.75361,-1.10697 7.94162,1.66452 7.49237,4.95822 19.19381,15.4041 43.40486,38.74756 12.38552,11.94167 30.46927,28.97382 40.18612,37.84921 l 17.66702,16.13707 -0.73965,49.83051 c -0.9977,67.21477 -3.06381,105.32128 -5.90537,108.91661 -2.10387,2.66195 -27.44758,3.01992 -127.16358,1.79614 z m 125.3791,-8.67885 c 1.76781,-12.55424 3.47638,-52.9392 4.17472,-98.67659 0.57497,-37.65771 0.405,-48.43867 -0.80993,-51.37175 -1.95973,-4.7312 -85.20672,-84.42488 -96.00866,-91.91063 l -4.7079,-3.26258 -4.6558,2.78027 c -2.56071,1.52915 -30.08252,19.86501 -61.1596,40.74637 l -56.503778,37.9661 1.5e-4,8.8983 c 7e-5,4.89407 0.772,24.91526 1.71538,44.49153 0.94338,19.57627 2.07947,51.07627 2.52464,70 0.44517,18.92373 1.14059,36.80932 1.54539,39.74576 l 0.736,5.33898 23.12243,0.63602 c 12.717338,0.34981 60.487998,0.61676 106.157028,0.59322 l 83.03458,-0.0428 0.83535,-5.9322 0,3e-5 z"
       style="fill:#000000;stroke:none;stroke-width:1px;stroke-linecap:butt;stroke-linejoin:miter;stroke-opacity:1" />
    <path
       inkscape:connector-curvature="0"
       id="path6145"
       d="m 252.20872,285.04172 -15.72034,-15.08035 0,-22.61065 0,-22.61064 17.46206,0.82508 c 11.48718,0.54277 17.78811,1.31477 18.41497,2.25623 0.52411,0.78713 0.67986,3.03285 0.34611,4.99047 -1.54498,9.06237 -2.97517,27.33415 -3.11101,39.74577 -0.0821,7.50423 -0.4918,16.77615 -0.91039,20.60426 l -0.76106,6.96019 -15.72034,-15.08036 z m 13.88455,-20.78918 c 0.68734,-12.72457 1.52073,-25.00424 1.85196,-27.28813 0.99759,-6.87857 -0.26803,-7.63765 -13.91063,-8.34311 -6.71398,-0.34718 -12.47418,-0.43537 -12.80046,-0.19598 -0.95772,0.70271 -0.67946,36.11234 0.31161,39.65284 1.03958,3.71379 20.9093,21.69945 22.36438,20.24378 0.51338,-0.51359 1.49579,-11.34482 2.18314,-24.0694 z"
       style="fill:#000000;stroke:none;stroke-width:1px;stroke-linecap:butt;stroke-linejoin:miter;stroke-opacity:1" />
    <path
       inkscape:connector-curvature="0"
       id="path6147"
       d="m 365.2017,177.87944 c -8.39066,-2.89905 -16.61106,-7.95898 -19.48325,-11.99259 -4.49722,-6.31578 -2.52176,-6.4859 3.4149,-0.29408 3.22592,3.36457 6.72777,6.1174 7.78188,6.1174 2.1006,0 1.7875,-0.80285 -2.58855,-6.63741 -10.95674,-14.60861 9.67177,-27.73058 43.641,-27.76041 9.19784,-0.008 10.5188,0.27898 13.34745,2.90049 6.19212,5.73866 2.6832,15.75131 -8.12639,23.1885 -8.04612,5.53588 -14.13532,7.22356 -28.77663,7.97574 -7.3411,0.37714 -13.34746,1.09886 -13.34746,1.60383 0,0.50496 1.91285,1.54942 4.25078,2.321 7.81916,2.58056 28.31376,-1.54165 42.81315,-8.61128 10.61352,-5.17495 14.03777,-10.26076 14.03777,-20.84939 0,-7.01507 -0.28027,-7.86587 -3.35116,-10.17285 -3.01541,-2.26531 -4.79847,-2.50407 -17.79661,-2.38308 -16.43758,0.15301 -32.71863,3.09737 -44.75817,8.09433 -11.0249,4.57584 -11.52,4.70051 -8.3311,2.09791 3.8973,-3.18078 18.97429,-8.30714 30.44188,-10.35061 11.18399,-1.99294 34.24184,-2.27425 39.38729,-0.48054 11.84716,4.12995 9.97767,24.52059 -3.07765,33.56793 -5.70755,3.95533 -13.53204,6.99663 -25.86757,10.05445 -14.8556,3.68251 -17.16006,3.83971 -23.61156,1.61066 z m 27.39362,-13.76972 c 7.49625,-3.4319 17.1134,-12.3812 17.1134,-15.92499 0,-9.50215 -17.95568,-10.86379 -39.23718,-2.97548 -10.09771,3.74286 -15.33909,8.24908 -15.33909,13.18759 0,4.32853 2.04199,6.12938 9.26112,8.16746 7.69887,2.17352 20.53247,1.05653 28.20175,-2.45458 z"
       style="fill:#000000;stroke:none;stroke-width:1px;stroke-linecap:butt;stroke-linejoin:miter;stroke-opacity:1" />
    <path
       inkscape:connector-curvature="0"
       id="path6149"
       d="m 365.90667,158.75558 c -2.01481,-2.01481 -2.27087,-2.9956 -1.27022,-4.86534 1.9517,-3.64677 10.47395,-7.35319 18.36349,-7.98649 6.70574,-0.53827 7.27776,-0.3831 8.75362,2.37457 3.79184,7.08511 -1.82578,11.91519 -14.60871,12.5607 -7.64479,0.38605 -9.02447,0.13027 -11.23818,-2.08344 z m 19.6623,-1.90035 c 4.02659,-1.6558 6.20556,-5.92671 4.09866,-8.03361 -3.96779,-3.96779 -22.67077,1.2632 -22.67077,6.34073 0,4.64979 9.31638,5.49899 18.57211,1.69288 z"
       style="fill:#000000;stroke:none;stroke-width:1px;stroke-linecap:butt;stroke-linejoin:miter;stroke-opacity:1" />
    <path
       inkscape:connector-curvature="0"
       id="path6151"
       d="m 450.98976,120.64608 c -12.85899,-1.15899 -25.31345,-2.74535 -27.67657,-3.52525 -5.10605,-1.68515 -8.8479,-7.1356 -8.85427,-12.89728 -0.007,-6.073023 8.01891,-13.628975 16.36752,-15.409662 24.40934,-5.2063 64.99034,4.972566 70.22698,17.614922 1.84951,4.46511 -0.13175,10.89852 -4.3872,14.24586 -3.79746,2.98708 -12.27638,2.98177 -45.67646,-0.0286 z m 42.30987,-0.68985 c 2.57847,-0.98946 5.39214,-6.65718 5.39214,-10.86168 0,-4.46635 -3.47158,-7.60394 -13.38857,-12.100514 -12.60579,-5.715738 -19.90978,-7.148988 -36.3946,-7.141658 -17.54887,0.0078 -22.89218,1.245007 -28.16963,6.522458 -5.22409,5.224094 -5.40999,11.138124 -0.50431,16.043804 3.42698,3.42697 9.07364,5.68065 10.54543,4.20885 0.43526,-0.43525 -1.1913,-2.60775 -3.61457,-4.82776 -7.54028,-6.9078 -5.20638,-13.501624 5.92423,-16.73738 8.25089,-2.398598 31.0094,-1.741835 40.19841,1.160041 12.29078,3.881409 17.29234,9.829169 13.09385,15.570949 -1.58104,2.1622 -3.37332,2.40481 -20.51639,2.77726 -10.33121,0.22445 -19.22606,0.82785 -19.76634,1.3409 -0.54027,0.51304 4.53176,1.57179 11.27119,2.35278 6.73943,0.78099 12.7874,1.60485 13.43994,1.83079 2.11794,0.73335 20.51226,0.61979 22.48922,-0.13884 z m -50.37057,-8.28666 c 0,-0.3952 -1.36831,-2.3447 -3.04068,-4.3322 -3.61623,-4.29765 -2.42615,-6.37197 4.24301,-7.3956 l 4.13665,-0.634926 -4.15254,1.604126 c -7.3436,2.83683 -5.30089,4.90891 5.22644,5.30157 11.55446,0.43098 13.85159,-1.12833 6.54533,-4.443 -3.87717,-1.75898 -4.53973,-2.386939 -2.53875,-2.406195 3.91866,-0.03771 10.84965,3.112955 11.69518,5.316355 0.43022,1.12115 -0.17997,2.58196 -1.49973,3.59035 -3.56131,2.72108 0.0651,4.33298 7.85966,3.49348 8.80717,-0.94856 10.67797,-1.59434 10.67797,-3.68589 0,-3.76895 -2.61565,-6.29216 -9.19007,-8.865275 -5.72642,-2.24122 -9.21749,-2.685563 -21.65739,-2.75655 -12.90602,-0.07365 -15.36936,0.231085 -18.98305,2.348329 -8.97302,5.257256 -4.79623,12.817696 7.41526,13.422416 1.79449,0.0889 3.26271,-0.16178 3.26271,-0.55699 z"
       style="fill:#000000;stroke:none;stroke-width:1px;stroke-linecap:butt;stroke-linejoin:miter;stroke-opacity:1" />
    <path
       inkscape:connector-curvature="0"
       id="path6153"
       d="m 354.20322,80.875438 c -15.83741,-11.09296 4.81518,-40.860185 28.34893,-40.860185 4.04563,0 4.88313,-0.569255 8.29119,-5.63559 2.08504,-3.09958 5.18061,-7.157125 6.87903,-9.01678 11.92615,-13.058265 33.97712,-19.0402097 44.30843,-12.019905 5.59494,3.80186 6.8397,6.20341 7.0044,13.513755 0.11206,4.97398 -0.4708,6.666445 -3.69987,10.743485 -4.88652,6.16973 -17.27948,15.03386 -25.25663,18.06494 -4.76105,1.809055 -8.36334,2.25732 -15.679,1.951075 l -9.49782,-0.39759 -1.79149,5.33331 c -2.41697,7.19534 -12.13431,17.158855 -18.40167,18.86785 -7.00759,1.91084 -17.39385,1.63511 -20.5055,-0.544365 z m 20.5055,-3.3536 c 7.62645,-3.61154 12.69055,-9.06182 16.51373,-17.77304 2.69267,-6.13531 3.37241,-6.872535 5.72836,-6.21274 10.53055,2.94912 21.24196,1.256085 30.99215,-4.898585 6.93444,-4.377275 18.27552,-16.032045 19.20528,-19.736505 1.92394,-7.6656 -3.1492,-14.325725 -11.91326,-15.63998 -3.09051,-0.46345 -5.96051,-0.37274 -6.37778,0.201575 -0.41726,0.57432 -2.67018,1.09708 -5.0065,1.161695 -6.88941,0.19053 -17.20664,5.69075 -24.29668,12.952815 -3.55051,3.63665 -6.45547,7.221175 -6.45547,7.965615 0,0.74444 -1.16086,2.58921 -2.57969,4.09949 -2.1882,2.32922 -3.7637,2.74663 -10.38136,2.75039 -8.26001,0.005 -11.05317,1.17543 -18.95207,7.943605 -5.83102,4.996325 -4.29819,6.94921 2.2521,2.86925 10.9594,-6.826245 18.40019,-7.501905 22.0063,-1.998275 7.17992,10.95794 -18.64614,31.320805 -27.9385,22.028445 -1.6698,-1.669805 -2.37288,-3.9548 -2.37288,-7.711865 0,-5.96774 -1.29858,-6.86088 -3.36888,-2.317055 -1.80821,3.968595 -1.75505,10.287815 0.10617,12.620755 4.22017,5.28975 13.75323,5.997 22.83898,1.69441 z m -3.79929,-8.26206 c 4.92164,-2.05639 11.51116,-9.54308 11.51116,-13.078415 0,-1.80295 -1.06534,-3.21978 -3.12749,-4.159355 -2.66948,-1.2163 -3.92135,-1.027005 -8.54842,1.29261 -6.08111,3.048535 -8.55044,6.54874 -3.17938,4.506665 4.70166,-1.787565 4.85322,-1.50497 1.08785,2.028355 -3.0012,2.81626 -3.16208,3.279775 -1.27141,3.66332 2.90046,0.588385 7.02086,-3.28864 6.32462,-5.95105 -0.33902,-1.29644 0.0945,-2.122925 1.11344,-2.122925 2.46129,0 2.02724,4.3871 -0.7043,7.118645 -3.19792,3.19792 -8.47524,3.08623 -10.54196,-0.22311 -1.57038,-2.514575 -1.67235,-2.52607 -3.25149,-0.366455 -0.89665,1.22624 -1.63028,3.729185 -1.63028,5.56209 0,3.02345 0.3887,3.33256 4.19065,3.33256 2.30486,0 5.91701,-0.72132 8.02701,-1.602935 z"
       style="fill:#000000;stroke:none;stroke-width:1px;stroke-linecap:butt;stroke-linejoin:miter;stroke-opacity:1" />
    <path
       inkscape:connector-curvature="0"
       id="path6155"
       d="m 402.38618,45.982143 c -2.99363,-1.86429 -3.80821,-7.582015 -1.66942,-11.71798 2.42596,-4.69129 10.5021,-11.20191 18.53204,-14.939685 10.06435,-4.684755 19.5501,-3.68602 22.29931,2.34786 1.01839,2.23511 0.65336,3.93582 -1.94544,9.06408 -2.87719,5.677625 -4.09818,6.76932 -12.13619,10.85102 -9.46063,4.80411 -21.13737,6.850175 -25.0803,4.394705 z m 22.53371,-6.04797 c 8.19944,-4.09731 12.07696,-8.614145 12.07696,-14.068185 0,-5.251705 -4.09025,-7.00376 -11.64473,-4.98801 -10.28278,2.74374 -22.76204,12.83024 -22.76204,18.397665 0,5.27079 12.36984,5.63559 22.32981,0.65853 z"
       style="fill:#a0a0a0;stroke:none;stroke-width:1px;stroke-linecap:butt;stroke-linejoin:miter;stroke-opacity:1" />
    <path
       inkscape:connector-curvature="0"
       id="path6157"
       d="m 401.55472,44.912098 c -6.46481,-6.464805 1.10305,-17.710725 16.96955,-25.216915 11.13043,-5.265635 19.47893,-4.508795 22.98993,2.08416 1.10831,2.081195 0.77634,3.650415 -1.88248,8.898305 -2.91105,5.74574 -4.10583,6.817225 -12.16524,10.90979 -11.5386,5.859305 -22.03088,7.20554 -25.91176,3.32466 z m 20.47491,-3.761145 c 7.4268,-2.778725 14.96722,-10.18373 14.96722,-14.69844 0,-7.310735 -7.54335,-8.251145 -19.12185,-2.38387 -6.88918,3.491015 -15.28492,11.6981 -15.28492,14.941465 0,4.78647 9.55579,5.83883 19.43955,2.140845 z"
       style="fill:#000000;stroke:none;stroke-width:1px;stroke-linecap:butt;stroke-linejoin:miter;stroke-opacity:1" />
    <path
       inkscape:connector-curvature="0"
       id="path6159"
       d="m 412.79791,35.755643 c -1.10509,-2.879815 0.49404,-4.4663 2.17909,-2.16186 2.68939,3.677955 12.52833,-0.66334 12.52833,-5.52795 0,-1.14957 -0.66737,-2.35942 -1.48305,-2.68855 -0.94431,-0.38104 -0.78159,-0.63245 0.44795,-0.69209 1.06205,-0.05152 2.59342,0.704505 3.40305,1.680055 1.18342,1.425935 1.11301,2.321695 -0.35909,4.568415 -3.58832,5.47647 -15.18182,8.82073 -16.71628,4.82198 z"
       style="fill:#000000;stroke:none;stroke-width:1px;stroke-linecap:butt;stroke-linejoin:miter;stroke-opacity:1" />
    <path
       inkscape:connector-curvature="0"
       id="path6165"
       d="m 511.1494,59.210158 c -6.22833,-2.952385 -9.29379,-6.544275 -9.29379,-10.88982 0,-7.4297 8.46896,-11.91392 17.97942,-9.519905 16.1103,4.05535 21.60531,14.06388 10.79168,19.655825 -5.83983,3.01989 -14.02835,3.33684 -19.47731,0.7539 z m 17.26231,-3.208425 c 4.56912,-2.362785 4.50701,-5.789055 -0.18439,-10.171485 -5.30736,-4.95781 -7.58059,-4.227705 -4.53796,1.45749 1.90513,3.559765 -0.67786,5.98058 -5.91299,5.541745 -3.65164,-0.3061 -4.25409,-0.77665 -4.25409,-3.322705 0,-2.207275 0.98647,-3.40029 3.85593,-4.663265 5.17607,-2.278215 4.92665,-4.106765 -0.42328,-3.103115 -9.65774,1.811805 -12.0674,3.92782 -10.69586,9.39246 1.45692,5.80484 14.70988,8.717675 22.15264,4.868875 z m -7.77079,-6.41233 c 0,-0.9155 -0.5339,-1.83383 -1.18644,-2.04074 -1.94651,-0.617195 -4.52312,1.58509 -3.6007,3.0776 1.14426,1.85146 4.78714,1.062435 4.78714,-1.03686 z"
       style="fill:#000000;stroke:none;stroke-width:1px;stroke-linecap:butt;stroke-linejoin:miter;stroke-opacity:1" />
    <path
       inkscape:connector-curvature="0"
       id="path6167"
       d="m 509.15838,67.403283 c -1.7476,-0.569535 -5.07617,-2.48374 -7.39683,-4.253795 -12.10022,-9.229285 -11.97389,-22.75147 0.26311,-28.164475 11.87111,-5.25116 29.39745,-2.344225 37.62162,6.23996 6.16579,6.435705 3.43332,17.106275 -6.04333,23.599785 -4.29699,2.94434 -18.6699,4.460465 -24.44457,2.578525 z m 21.50003,-4.71519 c 5.38603,-2.732975 8.39953,-6.954785 9.19441,-12.88105 0.63848,-4.76025 0.55171,-4.89741 -5.74215,-9.076295 -7.4926,-4.974805 -14.81091,-6.632045 -23.86259,-5.403705 -10.66824,1.447715 -15.11563,5.482095 -15.11563,13.711895 0,3.677155 0.87267,5.270085 5.11307,9.3331 2.81219,2.694555 6.9499,5.507665 9.19492,6.25136 5.20315,1.72362 15.93648,0.74463 21.21797,-1.935305 z"
       style="fill:#000000;stroke:none;stroke-width:1px;stroke-linecap:butt;stroke-linejoin:miter;stroke-opacity:1" />
    <path
       inkscape:connector-curvature="0"
       id="path6171"
       d="m 414.45448,31.876613 c 0,-1.66368 6.97562,-6.107595 9.49153,-6.04671 0.97881,0.0237 0.17796,0.88936 -1.77966,1.92372 -1.95763,1.03436 -4.49365,2.697425 -5.6356,3.695705 -1.34144,1.172675 -2.07627,1.3239 -2.07627,0.427285 z"
       style="fill:#000000;stroke:none;stroke-width:1px;stroke-linecap:butt;stroke-linejoin:miter;stroke-opacity:1" />
  </g>
</svg>
